<svg width="360" height="343" viewBox="0 0 360 343" fill="none" xmlns="http://www.w3.org/2000/svg">
<path d="M259.297 84.3131C273.67 96.3745 285.258 111.409 293.269 128.387C301.28 145.365 305.524 163.885 305.71 182.681C305.897 201.477 302.021 220.104 294.35 237.287C286.678 254.471 275.39 269.804 261.26 282.239C258.641 284.549 255.931 286.751 253.13 288.846C232.292 304.437 207.298 313.468 181.346 314.785C155.394 316.101 129.664 309.642 107.448 296.235C74.3834 276.268 51.3643 242.14 45.9145 202.966C42.5689 178.986 45.9248 154.526 55.6106 132.295C66.0246 108.539 83.2555 88.3965 105.112 74.4284C126.969 60.4602 152.463 53.2978 178.354 53.8518C181.348 53.9289 184.378 54.0904 187.391 54.3751C213.883 56.7367 238.985 67.1877 259.297 84.3131Z" fill="url(#paint0_linear_331_5163)"/>
<g style="mix-blend-mode:multiply" opacity="0.7">
<path d="M260.11 84.679C274.483 96.7404 286.072 111.775 294.082 128.753C302.093 145.731 306.337 164.251 306.523 183.047C306.71 201.843 302.835 220.47 295.163 237.653C287.491 254.837 276.203 270.17 262.073 282.605C259.542 236.746 245 209.603 228.481 192.537C197.68 160.706 159.036 162.897 138.4 126.971C127.612 108.183 125.805 86.0308 129.459 62.9069C145.315 56.7918 162.206 53.8425 179.176 54.2257C182.17 54.3028 185.201 54.4643 188.214 54.749C214.702 57.1102 239.799 67.5582 260.11 84.679Z" fill="url(#paint1_linear_331_5163)"/>
</g>
<mask id="mask0_331_5163" style="mask-type:luminance" maskUnits="userSpaceOnUse" x="44" y="53" width="262" height="262">
<path d="M259.299 84.3141C273.672 96.3755 285.261 111.41 293.272 128.388C301.283 145.366 305.526 163.886 305.713 182.682C305.899 201.478 302.024 220.105 294.352 237.288C286.68 254.472 275.393 269.805 261.263 282.24C258.644 284.55 255.934 286.752 253.133 288.847C232.295 304.438 207.301 313.469 181.349 314.786C155.397 316.102 129.666 309.643 107.45 296.236C74.3859 276.269 51.3668 242.141 45.917 202.967C42.5713 178.987 45.9272 154.527 55.613 132.296C66.027 108.54 83.2579 88.3974 105.114 74.4293C126.971 60.4612 152.466 53.2987 178.356 53.8528C181.35 53.9299 184.381 54.0914 187.394 54.376C213.886 56.7377 238.987 67.1887 259.299 84.3141Z" fill="white"/>
</mask>
<g mask="url(#mask0_331_5163)">
<path d="M217.001 29.6977C158.657 119.836 113.269 220.555 84.4165 323.919C83.0923 323.387 81.7695 322.855 80.4481 322.323C107.629 218.089 153.066 117.262 213.168 27.7963L217.001 29.6977Z" fill="white"/>
<path d="M285.955 63.9462C259.31 166.116 214.774 264.944 155.864 352.636C154.54 352.104 153.217 351.572 151.895 351.04C209.132 262.485 253.719 163.542 282.122 62.0449L285.955 63.9462Z" fill="white"/>
<g style="mix-blend-mode:multiply" opacity="0.5">
<path d="M251.474 46.8245C208.98 142.975 164.017 242.752 120.13 338.282C118.81 337.749 117.487 337.217 116.162 336.687C158.375 240.288 203.382 140.411 247.642 44.9231C248.92 45.5539 250.198 46.1877 251.474 46.8245Z" fill="url(#paint2_linear_331_5163)"/>
</g>
<path d="M223.971 48.799L222.278 51.873C221.505 53.2905 219.947 53.9896 218.797 53.4301C217.647 52.8705 217.366 51.2783 218.173 49.8693C218.751 48.8487 219.334 47.8321 219.917 46.8112C220.73 45.4083 222.277 44.7121 223.381 45.2554C224.484 45.7987 224.751 47.3832 223.971 48.799ZM215.555 64.2242C213.321 68.3516 211.109 72.497 208.92 76.6604C208.165 78.0939 206.537 78.7806 205.289 78.1846C204.041 77.5886 203.657 75.9516 204.44 74.5181C206.689 70.3737 208.959 66.2495 211.251 62.1455C212.039 60.7291 213.641 60.0399 214.814 60.6108C215.986 61.1818 216.327 62.798 215.555 64.2242ZM202.385 89.1874C200.218 93.3724 198.061 97.5668 195.915 101.771C195.179 103.225 193.507 103.897 192.174 103.272C190.841 102.648 190.378 100.97 191.138 99.5213C193.321 95.3279 195.521 91.1478 197.738 86.981C198.505 85.5421 200.162 84.8642 201.43 85.4696C202.699 86.0751 203.125 87.733 202.385 89.1874ZM189.548 114.431C187.437 118.663 185.342 122.904 183.261 127.154C182.54 128.624 180.845 129.29 179.459 128.655C178.074 128.021 177.539 126.315 178.27 124.848C180.377 120.608 182.505 116.376 184.654 112.153C185.394 110.699 187.091 110.023 188.433 110.656C189.775 111.288 190.256 112.953 189.539 114.423L189.548 114.431ZM177.068 139.937C175.02 144.209 172.986 148.489 170.968 152.777C170.655 153.48 170.078 154.033 169.363 154.316C168.647 154.599 167.85 154.59 167.143 154.291C166.802 154.127 166.497 153.897 166.246 153.614C165.995 153.331 165.804 153.001 165.682 152.642C165.561 152.284 165.512 151.905 165.539 151.527C165.566 151.149 165.668 150.78 165.84 150.441C167.874 146.157 169.927 141.881 171.999 137.613C172.714 136.141 174.426 135.47 175.823 136.109C176.157 136.276 176.455 136.507 176.698 136.79C176.942 137.073 177.127 137.402 177.242 137.758C177.357 138.113 177.4 138.488 177.368 138.861C177.337 139.234 177.232 139.597 177.059 139.929L177.068 139.937ZM164.965 165.668C162.983 169.973 161.014 174.288 159.059 178.611C158.917 178.97 158.704 179.297 158.433 179.572C158.161 179.846 157.837 180.063 157.48 180.209C157.123 180.355 156.74 180.427 156.355 180.421C155.969 180.414 155.589 180.33 155.238 180.172C154.887 180.015 154.572 179.787 154.311 179.504C154.051 179.22 153.851 178.887 153.723 178.523C153.596 178.16 153.543 177.774 153.569 177.389C153.595 177.004 153.699 176.628 153.874 176.284C155.831 171.956 157.806 167.639 159.8 163.333C160.11 162.627 160.687 162.072 161.403 161.787C162.12 161.502 162.918 161.511 163.626 161.812C163.967 161.977 164.272 162.207 164.523 162.489C164.774 162.772 164.967 163.101 165.09 163.459C165.213 163.817 165.265 164.195 165.241 164.574C165.218 164.952 165.12 165.322 164.954 165.662L164.965 165.668ZM153.254 191.597C151.325 195.93 149.419 200.272 147.534 204.621C147.392 204.972 147.183 205.293 146.917 205.563C146.651 205.833 146.334 206.048 145.985 206.195C145.636 206.342 145.261 206.419 144.883 206.42C144.504 206.421 144.13 206.347 143.781 206.202C143.086 205.871 142.549 205.281 142.286 204.558C142.023 203.835 142.053 203.036 142.372 202.334C144.246 197.975 146.141 193.624 148.057 189.28C148.203 188.928 148.417 188.608 148.687 188.339C148.956 188.069 149.277 187.856 149.629 187.711C149.982 187.566 150.359 187.493 150.74 187.495C151.12 187.497 151.497 187.574 151.846 187.723C152.542 188.052 153.079 188.643 153.341 189.367C153.602 190.092 153.567 190.891 153.242 191.591L153.254 191.597ZM141.943 217.691C140.089 222.054 138.256 226.421 136.442 230.791C135.822 232.289 134.178 233.031 132.785 232.423C131.393 231.816 130.762 230.103 131.381 228.583C133.173 224.195 134.986 219.814 136.818 215.441C136.954 215.089 137.159 214.768 137.42 214.496C137.682 214.224 137.995 214.007 138.341 213.858C138.687 213.709 139.059 213.63 139.436 213.627C139.812 213.624 140.185 213.696 140.533 213.839C141.222 214.169 141.754 214.756 142.016 215.475C142.277 216.194 142.247 216.987 141.932 217.686L141.943 217.691ZM131.043 243.906C129.263 248.287 127.502 252.67 125.758 257.055C125.157 258.569 123.582 259.335 122.244 258.763C120.907 258.191 120.294 256.489 120.882 254.968C122.589 250.556 124.317 246.151 126.067 241.752C126.665 240.236 128.281 239.489 129.662 240.087C131.043 240.684 131.654 242.4 131.043 243.906ZM120.574 270.243C118.867 274.636 117.18 279.031 115.511 283.43C114.926 284.958 113.44 285.748 112.177 285.216C110.913 284.684 110.336 283.018 110.893 281.489C112.513 277.059 114.153 272.636 115.815 268.221C116.395 266.689 117.926 265.909 119.25 266.478C120.575 267.046 121.168 268.723 120.574 270.243ZM110.565 296.629C108.933 301.032 107.322 305.436 105.732 309.841C105.181 311.358 103.79 312.202 102.62 311.727C101.45 311.251 100.936 309.623 101.459 308.087C102.987 303.647 104.54 299.213 106.118 294.785C106.648 293.241 108.105 292.438 109.342 292.943C110.58 293.449 111.119 295.103 110.565 296.629Z" fill="white"/>
<path d="M233.7 53.5625L232.136 56.6838C231.419 58.1213 229.914 58.8253 228.758 58.277C227.602 57.7288 227.285 56.1044 228.031 54.6758L229.65 51.5744C230.397 50.1501 231.898 49.4551 233.004 49.9764C234.11 50.4977 234.418 52.1294 233.7 53.5625ZM225.891 69.214C223.813 73.4013 221.744 77.5981 219.682 81.8046C218.972 83.2567 217.384 83.9537 216.136 83.3577C214.888 82.7616 214.474 81.0984 215.202 79.6624C217.322 75.4764 219.45 71.3008 221.587 67.1353C222.326 65.7006 223.884 64.9972 225.056 65.5682C226.229 66.1392 226.606 67.7702 225.891 69.214ZM213.512 94.4491C211.463 98.6749 209.419 102.907 207.378 107.145C206.676 108.612 205.034 109.291 203.706 108.67C202.378 108.05 201.882 106.364 202.602 104.905C204.684 100.678 206.774 96.4606 208.872 92.253C209.601 90.7973 211.22 90.1113 212.489 90.7167C213.757 91.3221 214.219 92.9862 213.512 94.4491ZM201.282 119.887C199.259 124.14 197.242 128.402 195.233 132.673C194.535 134.148 192.855 134.83 191.477 134.191C190.1 133.552 189.539 131.842 190.246 130.371C192.285 126.11 194.334 121.855 196.393 117.608C197.102 116.148 198.772 115.469 200.116 116.095C201.459 116.721 201.985 118.42 201.282 119.887ZM189.227 145.501C187.233 149.783 185.247 154.071 183.268 158.365C182.962 159.07 182.389 159.625 181.676 159.909C180.963 160.193 180.167 160.183 179.463 159.881C179.121 159.717 178.816 159.487 178.565 159.205C178.313 158.922 178.121 158.592 177.998 158.234C177.875 157.876 177.824 157.497 177.848 157.119C177.873 156.74 177.972 156.371 178.14 156.03C180.132 151.739 182.137 147.455 184.154 143.177C184.462 142.478 185.032 141.927 185.742 141.644C186.451 141.361 187.243 141.369 187.945 141.666C188.282 141.831 188.584 142.063 188.831 142.346C189.079 142.629 189.268 142.958 189.387 143.315C189.507 143.672 189.555 144.049 189.528 144.425C189.502 144.801 189.401 145.168 189.232 145.505L189.227 145.501ZM177.355 171.261C175.394 175.564 173.439 179.871 171.491 184.184C171.349 184.543 171.136 184.87 170.865 185.145C170.593 185.419 170.269 185.636 169.912 185.782C169.555 185.928 169.172 186 168.786 185.994C168.401 185.987 168.021 185.903 167.67 185.745C167.319 185.588 167.003 185.36 166.743 185.077C166.482 184.793 166.282 184.46 166.155 184.096C166.027 183.733 165.975 183.347 166.001 182.962C166.027 182.577 166.131 182.201 166.306 181.857C168.256 177.54 170.216 173.229 172.187 168.925C172.33 168.568 172.544 168.245 172.816 167.973C173.088 167.701 173.412 167.487 173.768 167.343C174.124 167.2 174.505 167.13 174.889 167.138C175.272 167.145 175.65 167.231 175.999 167.389C176.348 167.547 176.662 167.774 176.92 168.056C177.179 168.339 177.378 168.671 177.504 169.033C177.631 169.395 177.683 169.779 177.657 170.162C177.632 170.545 177.529 170.919 177.355 171.261ZM165.683 197.131C163.752 201.449 161.832 205.77 159.924 210.097C159.779 210.447 159.566 210.765 159.297 211.034C159.029 211.302 158.71 211.515 158.36 211.66C158.01 211.806 157.634 211.881 157.256 211.881C156.877 211.881 156.502 211.806 156.152 211.661C155.46 211.334 154.925 210.746 154.664 210.025C154.404 209.305 154.438 208.509 154.76 207.812C156.654 203.484 158.566 199.153 160.497 194.82C160.639 194.462 160.851 194.136 161.122 193.862C161.392 193.589 161.715 193.372 162.071 193.227C162.427 193.081 162.809 193.008 163.193 193.014C163.577 193.02 163.956 193.103 164.306 193.26C164.657 193.416 164.972 193.642 165.233 193.923C165.493 194.205 165.694 194.537 165.822 194.899C165.951 195.26 166.005 195.645 165.981 196.028C165.957 196.412 165.856 196.787 165.683 197.131ZM154.225 223.081C152.333 227.411 150.448 231.746 148.569 236.087C147.934 237.571 146.27 238.308 144.879 237.698C143.489 237.089 142.872 235.384 143.509 233.88C145.359 229.533 147.22 225.188 149.093 220.845C149.233 220.493 149.441 220.173 149.706 219.903C149.971 219.632 150.286 219.417 150.635 219.269C150.983 219.122 151.356 219.045 151.734 219.043C152.112 219.041 152.486 219.114 152.835 219.258C153.524 219.581 154.057 220.165 154.318 220.881C154.578 221.597 154.545 222.388 154.225 223.081ZM142.998 249.081C141.145 253.417 139.302 257.753 137.47 262.088C136.841 263.578 135.239 264.328 133.899 263.758C132.559 263.188 131.971 261.496 132.591 259.994C134.385 255.634 136.194 251.278 138.016 246.926C138.638 245.43 140.276 244.691 141.657 245.288C143.038 245.886 143.633 247.584 142.998 249.081ZM132.005 275.089C130.195 279.424 128.395 283.757 126.606 288.089C125.986 289.587 124.46 290.367 123.197 289.835C121.933 289.303 121.39 287.654 121.987 286.149C123.726 281.787 125.479 277.426 127.246 273.067C127.859 271.563 129.423 270.796 130.752 271.369C132.081 271.941 132.627 273.593 132.001 275.085L132.005 275.089ZM121.271 301.081C119.503 305.41 117.748 309.736 116.005 314.059C115.389 315.561 113.969 316.363 112.79 315.888C111.612 315.414 111.14 313.802 111.718 312.297C113.401 307.937 115.099 303.576 116.814 299.211C117.403 297.707 118.888 296.908 120.131 297.422C121.373 297.936 121.878 299.584 121.266 301.077L121.271 301.081Z" fill="white"/>
<path d="M257.207 65.0858L255.947 68.3202C255.366 69.811 253.965 70.5685 252.817 70.0067C251.669 69.4448 251.236 67.7938 251.844 66.3098L253.16 63.0953C253.765 61.6137 255.149 60.8574 256.257 61.4004C257.364 61.9434 257.786 63.5973 257.207 65.0858ZM250.853 81.2727C249.142 85.5933 247.417 89.9135 245.679 94.2331C245.069 95.7391 243.582 96.4505 242.331 95.8568C241.081 95.2631 240.577 93.5781 241.197 92.0932C242.993 87.7912 244.778 83.4928 246.554 79.1981C247.176 77.7022 248.617 76.9788 249.799 77.5382C250.982 78.0976 251.437 79.7839 250.849 81.2687L250.853 81.2727ZM240.41 107.196C238.643 111.518 236.866 115.838 235.077 120.157C234.455 121.653 232.884 122.348 231.554 121.73C230.224 121.112 229.667 119.402 230.299 117.914C232.132 113.61 233.955 109.305 235.77 105C236.401 103.512 237.932 102.806 239.197 103.392C240.462 103.978 241.025 105.694 240.41 107.196ZM229.663 133.108C227.846 137.426 226.019 141.743 224.182 146.058C223.551 147.546 221.91 148.242 220.526 147.602C219.848 147.26 219.329 146.668 219.08 145.95C218.831 145.231 218.87 144.444 219.19 143.752C221.055 139.448 222.915 135.141 224.769 130.83C225.405 129.347 227.015 128.648 228.359 129.274C229.703 129.9 230.299 131.616 229.674 133.105L229.663 133.108ZM218.63 158.996C216.773 163.312 214.899 167.619 213.008 171.916C212.863 172.265 212.651 172.581 212.383 172.847C212.115 173.113 211.797 173.322 211.447 173.464C211.098 173.605 210.724 173.675 210.347 173.669C209.97 173.664 209.599 173.583 209.254 173.432C208.564 173.1 208.032 172.51 207.774 171.789C207.515 171.068 207.551 170.273 207.872 169.575C209.775 165.274 211.669 160.971 213.554 156.665C213.693 156.318 213.901 156.003 214.164 155.737C214.427 155.471 214.74 155.261 215.086 155.118C215.431 154.975 215.801 154.903 216.175 154.906C216.548 154.91 216.917 154.988 217.259 155.136C217.945 155.472 218.472 156.063 218.73 156.782C218.988 157.502 218.956 158.294 218.641 158.993L218.63 158.996ZM207.321 184.818C205.413 189.115 203.494 193.407 201.565 197.696C201.42 198.05 201.205 198.372 200.933 198.642C200.661 198.912 200.338 199.125 199.982 199.267C199.627 199.41 199.247 199.48 198.864 199.472C198.482 199.465 198.105 199.38 197.757 199.224C197.408 199.067 197.095 198.842 196.836 198.561C196.577 198.281 196.377 197.951 196.248 197.591C196.119 197.231 196.064 196.848 196.087 196.466C196.109 196.084 196.208 195.71 196.378 195.367C198.312 191.074 200.239 186.776 202.161 182.472C202.308 182.123 202.523 181.807 202.793 181.541C203.063 181.276 203.383 181.067 203.734 180.926C204.085 180.784 204.461 180.714 204.839 180.719C205.217 180.724 205.59 180.804 205.936 180.955C206.63 181.283 207.166 181.873 207.427 182.595C207.688 183.318 207.654 184.116 207.331 184.815L207.321 184.818ZM195.758 210.538C193.806 214.815 191.847 219.086 189.88 223.351C189.569 224.053 188.996 224.606 188.284 224.891C187.571 225.177 186.776 225.172 186.069 224.878C185.727 224.72 185.421 224.495 185.167 224.217C184.914 223.939 184.718 223.613 184.593 223.258C184.467 222.904 184.413 222.527 184.434 222.151C184.455 221.774 184.551 221.406 184.716 221.066C186.675 216.795 188.626 212.517 190.569 208.232C190.876 207.526 191.449 206.971 192.163 206.686C192.878 206.401 193.674 206.409 194.38 206.71C194.723 206.869 195.031 207.094 195.286 207.373C195.541 207.652 195.739 207.979 195.867 208.335C195.995 208.69 196.051 209.068 196.033 209.447C196.014 209.825 195.921 210.196 195.758 210.538ZM183.935 236.134C181.952 240.384 179.952 244.631 177.937 248.875C177.243 250.337 175.548 251.035 174.155 250.423C172.763 249.811 172.189 248.131 172.874 246.666C174.855 242.414 176.835 238.153 178.812 233.881C179.121 233.18 179.691 232.626 180.401 232.339C181.112 232.052 181.905 232.054 182.612 232.345C182.952 232.501 183.257 232.725 183.508 233.002C183.76 233.279 183.953 233.604 184.076 233.958C184.2 234.312 184.251 234.687 184.226 235.061C184.201 235.435 184.102 235.801 183.933 236.136L183.935 236.134ZM171.881 261.57C169.853 265.794 167.813 270.009 165.763 274.215C165.054 275.671 163.396 276.373 162.056 275.803C160.716 275.234 160.192 273.585 160.884 272.121C162.894 267.894 164.895 263.659 166.889 259.419C167.577 257.955 169.258 257.249 170.637 257.849C172.016 258.449 172.578 260.114 171.879 261.572L171.881 261.57ZM159.603 286.815C157.544 291 155.472 295.179 153.387 299.354C152.668 300.798 151.058 301.529 149.794 300.998C148.531 300.466 148.071 298.86 148.77 297.411C150.803 293.204 152.831 289.001 154.856 284.803C155.554 283.345 157.189 282.619 158.511 283.186C159.833 283.752 160.316 285.374 159.601 286.818L159.603 286.815ZM147.123 311.836C145.025 315.987 142.919 320.123 140.804 324.245C140.075 325.668 138.533 326.438 137.364 325.956C136.196 325.474 135.822 323.923 136.529 322.488C138.574 318.325 140.618 314.155 142.66 309.977C143.364 308.532 144.938 307.782 146.18 308.3C147.423 308.818 147.845 310.402 147.121 311.838L147.123 311.836Z" fill="white"/>
<path d="M262.207 52.1499C261.381 54.3051 260.552 56.4599 259.719 58.6143C259.147 60.1044 257.787 60.8698 256.682 60.3288C255.577 59.7879 255.171 58.148 255.764 56.6803L258.364 50.2601C258.966 48.7831 260.296 48.0046 261.337 48.5262C262.378 49.0479 262.777 50.6577 262.207 52.1499Z" fill="white"/>
<path d="M266.94 69.8515L265.8 73.1339C265.289 74.6567 263.923 75.4161 262.775 74.8585C261.627 74.301 261.147 72.6295 261.697 71.1279L262.886 67.8638C263.434 66.3645 264.768 65.5856 265.874 66.131C266.979 66.6763 267.458 68.3391 266.94 69.8515ZM261.179 86.2571C259.616 90.628 258.032 94.9983 256.427 99.3679C255.875 100.872 254.409 101.614 253.168 101.016C251.926 100.417 251.377 98.7179 251.951 97.2211C253.611 92.8722 255.254 88.523 256.879 84.1738C257.441 82.6779 258.844 81.9137 260.025 82.4884C261.207 83.0631 261.718 84.7454 261.179 86.2571ZM251.549 112.459C249.903 116.82 248.235 121.178 246.546 125.532C245.966 127.035 244.411 127.749 243.087 127.124C241.763 126.499 241.169 124.785 241.77 123.287C243.5 118.95 245.214 114.608 246.911 110.261C247.498 108.763 249.001 108.033 250.272 108.641C251.543 109.248 252.118 110.954 251.549 112.459ZM241.431 138.584C239.703 142.926 237.954 147.264 236.184 151.599C235.569 153.101 233.954 153.791 232.57 153.151C231.891 152.807 231.37 152.216 231.114 151.499C230.857 150.781 230.886 149.992 231.193 149.293C232.991 144.967 234.772 140.637 236.537 136.306C237.152 134.804 238.731 134.103 240.073 134.732C241.414 135.36 242.017 137.077 241.421 138.576L241.431 138.584ZM230.82 164.582C229.015 168.902 227.188 173.216 225.341 177.525C225.2 177.873 224.991 178.19 224.726 178.456C224.461 178.723 224.145 178.933 223.797 179.075C223.45 179.217 223.077 179.288 222.702 179.283C222.327 179.278 221.957 179.198 221.614 179.047C220.922 178.714 220.389 178.123 220.129 177.401C219.869 176.678 219.901 175.881 220.22 175.181C222.082 170.877 223.928 166.565 225.757 162.246C225.893 161.9 226.096 161.585 226.356 161.319C226.616 161.053 226.926 160.842 227.269 160.698C227.611 160.555 227.979 160.482 228.35 160.483C228.721 160.485 229.088 160.562 229.429 160.708C230.109 161.053 230.632 161.645 230.889 162.364C231.146 163.082 231.118 163.873 230.811 164.574L230.82 164.582ZM219.732 190.421C217.851 194.712 215.948 198.997 214.022 203.278C213.871 203.624 213.653 203.936 213.381 204.197C213.109 204.458 212.788 204.662 212.437 204.798C212.085 204.935 211.711 205 211.335 204.99C210.958 204.98 210.588 204.896 210.245 204.742C209.902 204.588 209.593 204.368 209.337 204.093C209.08 203.819 208.88 203.496 208.749 203.143C208.618 202.791 208.559 202.416 208.574 202.039C208.589 201.663 208.679 201.293 208.838 200.951C210.762 196.669 212.671 192.38 214.564 188.084C214.71 187.736 214.923 187.42 215.191 187.154C215.46 186.889 215.778 186.679 216.128 186.537C216.478 186.396 216.852 186.325 217.229 186.329C217.606 186.333 217.978 186.412 218.323 186.562C219.018 186.889 219.556 187.478 219.819 188.2C220.083 188.922 220.051 189.72 219.732 190.421ZM208.21 216.095C206.25 220.352 204.271 224.606 202.272 228.856C201.954 229.555 201.377 230.104 200.662 230.386C199.948 230.668 199.153 230.66 198.446 230.366C198.101 230.21 197.792 229.986 197.536 229.708C197.28 229.43 197.084 229.102 196.958 228.746C196.832 228.389 196.779 228.01 196.803 227.632C196.827 227.254 196.927 226.884 197.097 226.546C199.082 222.297 201.053 218.036 203.01 213.763C203.32 213.06 203.894 212.507 204.608 212.224C205.322 211.942 206.118 211.952 206.822 212.254C207.169 212.41 207.481 212.635 207.739 212.914C207.997 213.193 208.197 213.521 208.326 213.879C208.456 214.237 208.512 214.618 208.492 214.998C208.472 215.379 208.376 215.752 208.21 216.095ZM196.246 241.54C194.222 245.755 192.174 249.966 190.101 254.174C189.389 255.624 187.673 256.308 186.283 255.703C184.893 255.097 184.337 253.425 185.038 251.969C187.081 247.749 189.11 243.523 191.125 239.289C191.444 238.591 192.02 238.042 192.733 237.76C193.446 237.477 194.24 237.481 194.948 237.773C195.286 237.928 195.59 238.151 195.839 238.428C196.089 238.704 196.28 239.028 196.401 239.381C196.521 239.734 196.569 240.108 196.542 240.48C196.514 240.852 196.411 241.215 196.24 241.547L196.246 241.54ZM183.852 266.745C181.749 270.924 179.631 275.091 177.498 279.246C176.757 280.683 175.07 281.372 173.72 280.79C172.371 280.208 171.888 278.582 172.595 277.161C174.692 272.982 176.777 268.794 178.849 264.597C179.562 263.147 181.259 262.455 182.631 263.049C184.003 263.643 184.56 265.3 183.834 266.742L183.852 266.745ZM171.019 291.676C168.852 295.804 166.669 299.921 164.468 304.026C163.706 305.444 162.06 306.152 160.797 305.625C159.534 305.097 159.105 303.511 159.849 302.08C161.999 297.947 164.136 293.804 166.262 289.651C166.991 288.22 168.655 287.515 169.981 288.073C171.307 288.631 171.777 290.249 171.019 291.676ZM157.817 316.293C155.583 320.368 153.334 324.429 151.07 328.476C150.286 329.873 148.701 330.617 147.533 330.135C146.364 329.653 146.031 328.126 146.792 326.718C148.988 322.634 151.177 318.541 153.359 314.439C154.107 313.023 155.724 312.283 156.963 312.805C158.202 313.328 158.593 314.882 157.821 316.289L157.817 316.293Z" fill="white"/>
<path d="M271.396 56.7161C270.663 58.9054 269.924 61.0951 269.179 63.2852C268.675 64.7987 267.358 65.5806 266.253 65.0397C265.148 64.4987 264.695 62.8426 265.236 61.3373C266.016 59.1636 266.793 56.9879 267.568 54.8102C268.103 53.3118 269.379 52.5153 270.42 53.0326C271.46 53.55 271.898 55.2049 271.396 56.7161Z" fill="white"/>
</g>
<defs>
<linearGradient id="paint0_linear_331_5163" x1="-71.3724" y1="48.8777" x2="216.077" y2="207.353" gradientUnits="userSpaceOnUse">
<stop stop-color="#85E2FF"/>
<stop offset="1" stop-color="#6FD1FB"/>
</linearGradient>
<linearGradient id="paint1_linear_331_5163" x1="171.077" y1="241.769" x2="246.688" y2="73.1632" gradientUnits="userSpaceOnUse">
<stop stop-color="#85A0FF"/>
<stop offset="1" stop-color="#6F9FFB"/>
</linearGradient>
<linearGradient id="paint2_linear_331_5163" x1="117.993" y1="337.483" x2="248.939" y2="45.484" gradientUnits="userSpaceOnUse">
<stop stop-color="#191D44"/>
<stop offset="1" stop-color="#393C89"/>
</linearGradient>
</defs>
</svg>
