<svg width="32" height="30" viewBox="0 0 32 30" fill="none" xmlns="http://www.w3.org/2000/svg">
<path d="M31.0314 14.9998C31.0314 16.5676 29.1393 17.8173 28.68 19.232C28.204 20.6982 28.9836 22.818 28.0954 24.0384C27.1985 25.271 24.9354 25.1801 23.7028 26.0771C22.4824 26.9652 21.8744 29.1505 20.4082 29.6265C18.9935 30.0858 17.2236 28.6902 15.6558 28.6902C14.0881 28.6902 12.318 30.0858 10.9033 29.6264C9.43709 29.1504 8.82908 26.9649 7.60873 26.0768C6.37616 25.1798 4.11307 25.2705 3.21609 24.038C2.32796 22.8176 3.10769 20.6978 2.63168 19.2315C2.17238 17.8173 0.280273 16.5676 0.280273 14.9998C0.280273 13.4321 2.17238 12.1824 2.63168 10.7677C3.10769 9.30145 2.3281 7.18158 3.21623 5.96123C4.11321 4.72866 6.3763 4.81951 7.60887 3.92253C8.82922 3.0344 9.43723 0.8491 10.9035 0.37309C12.3181 -0.0863515 14.0881 1.30924 15.6558 1.30924C17.2236 1.30924 18.9937 -0.0863515 20.4084 0.37309C21.8746 0.8491 22.4826 3.03454 23.7029 3.92267C24.9355 4.81965 27.1986 4.72894 28.0956 5.96151C28.9837 7.18187 28.204 9.30173 28.68 10.768C29.1393 12.1824 31.0314 13.4321 31.0314 14.9998Z" fill="#77D7FC"/>
<path d="M15.6571 25.6015C21.5121 25.6015 26.2585 20.8551 26.2585 15.0001C26.2585 9.1451 21.5121 4.39868 15.6571 4.39868C9.80208 4.39868 5.05566 9.1451 5.05566 15.0001C5.05566 20.8551 9.80208 25.6015 15.6571 25.6015Z" fill="#E2F7FF"/>
<path d="M15.6569 23.0739C20.116 23.0739 23.7309 19.4591 23.7309 14.9999C23.7309 10.5408 20.116 6.92603 15.6569 6.92603C11.1978 6.92603 7.58301 10.5408 7.58301 14.9999C7.58301 19.4591 11.1978 23.0739 15.6569 23.0739Z" fill="#4671C6"/>
<path d="M12.9717 19.5786C12.9637 19.5786 12.9558 19.5786 12.9478 19.5785C12.5392 19.5716 12.1548 19.3875 11.893 19.0735L9.02194 15.6296C8.67427 15.2127 8.73057 14.5929 9.14747 14.2452C9.5645 13.8975 10.1844 13.9538 10.5318 14.3707L12.9862 17.3147L19.2483 10.2995C19.6097 9.89455 20.2312 9.85944 20.636 10.2207C21.0411 10.5823 21.0764 11.2036 20.7148 11.6086L14.0192 19.1095C13.7524 19.4084 13.3717 19.5786 12.9717 19.5786Z" fill="#6BDDDD"/>
<path d="M19.7915 30C19.0994 30 18.3753 29.7352 17.6688 29.4768C16.9894 29.2283 16.2867 28.9713 15.6564 28.9713C15.0261 28.9713 14.3233 29.2283 13.6438 29.4768C12.693 29.8243 11.71 30.1837 10.8172 29.8938C9.8815 29.59 9.28754 28.6993 8.7131 27.838C8.30645 27.2282 7.92241 26.6523 7.44416 26.3042C6.95705 25.9498 6.28418 25.7592 5.57185 25.5572C4.58276 25.277 3.55997 24.9871 2.98974 24.2036C2.42611 23.4292 2.46458 22.3725 2.50179 21.3507C2.52777 20.6382 2.55445 19.9014 2.36531 19.3187C2.18712 18.7701 1.76405 18.2348 1.31598 17.6682C0.668942 16.8502 0 16.0042 0 14.9999C0 13.9957 0.668942 13.1497 1.31584 12.3316C1.76391 11.765 2.18712 11.2297 2.36517 10.6811C2.55445 10.0984 2.52763 9.36179 2.50165 8.64918C2.46444 7.62723 2.42597 6.5706 2.98974 5.7962C3.55997 5.01254 4.5829 4.72272 5.57199 4.44259C6.28432 4.24067 6.95719 4.05013 7.4443 3.69558C7.92241 3.34749 8.30659 2.77164 8.71324 2.16196C9.28768 1.30064 9.88164 0.409844 10.8174 0.106124C11.7106 -0.183835 12.6935 0.17563 13.6441 0.52316C14.3236 0.771696 15.0262 1.02866 15.6565 1.02866C16.2869 1.02866 16.9895 0.771696 17.669 0.52316C18.6197 0.17549 19.6028 -0.183835 20.4957 0.106124C21.4314 0.409984 22.0255 1.30064 22.5998 2.16196C23.0065 2.77178 23.3905 3.34763 23.8688 3.69572C24.3559 4.05013 25.0287 4.24082 25.7411 4.44273C26.7303 4.723 27.753 5.01282 28.3233 5.79634C28.887 6.57074 28.8485 7.62751 28.8114 8.64946C28.7854 9.36193 28.7586 10.0986 28.9479 10.6813C29.1261 11.2299 29.5492 11.7652 29.9972 12.3317C30.6441 13.1498 31.3131 13.9958 31.3131 15.0001C31.3131 16.0043 30.6441 16.8503 29.9972 17.6684C29.5493 18.235 29.1261 18.7702 28.9479 19.3188C28.7586 19.9016 28.7854 20.6383 28.8113 21.3508C28.8485 22.3726 28.8868 23.4294 28.3232 24.2038C27.753 24.9874 26.7302 25.2772 25.7409 25.5575C25.0286 25.7594 24.3557 25.95 23.8686 26.3044C23.3904 26.6525 23.0062 27.2283 22.5997 27.838C22.0252 28.6993 21.4313 29.5901 20.4955 29.8938C20.2661 29.9683 20.0306 30 19.7915 30ZM15.6564 28.4096C16.3861 28.4096 17.1364 28.684 17.8618 28.9493C18.7624 29.2788 19.6133 29.5897 20.322 29.3596C21.0722 29.1161 21.5871 28.3439 22.1324 27.5263C22.5486 26.9024 22.9788 26.2572 23.5382 25.85C24.1062 25.4366 24.8594 25.2232 25.5879 25.0168C26.5267 24.7508 27.4131 24.4996 27.8691 23.8729C28.3184 23.2554 28.2853 22.34 28.25 21.3709C28.2224 20.6095 28.1937 19.8222 28.4136 19.145C28.6228 18.5005 29.0976 17.9002 29.5566 17.3196C30.1441 16.5768 30.7514 15.8086 30.7514 14.9996C30.7514 14.1907 30.1441 13.4225 29.5566 12.6797C29.0976 12.0992 28.623 11.4988 28.4136 10.8543C28.1939 10.177 28.2225 9.38987 28.2502 8.62854C28.2854 7.65938 28.3187 6.74387 27.8692 6.12632C27.4133 5.49979 26.5266 5.24858 25.5882 4.98249C24.8597 4.77608 24.1065 4.56265 23.5384 4.14926C22.9791 3.7422 22.5487 3.09699 22.1325 2.47298C21.5873 1.65547 21.0724 0.883327 20.3221 0.639705C19.6136 0.409563 18.7628 0.720725 17.8619 1.05C17.1364 1.31581 16.3861 1.59018 15.6564 1.59018C14.9265 1.59018 14.1764 1.31581 13.451 1.05056C12.5502 0.721006 11.6996 0.409985 10.9908 0.640267C10.2407 0.883748 9.72564 1.65604 9.1804 2.47354C8.76435 3.09741 8.33412 3.74262 7.7747 4.14969C7.20671 4.56307 6.45338 4.7765 5.72504 4.98291C4.78636 5.24886 3.89978 5.50007 3.44384 6.12674C2.99437 6.74429 3.02765 7.65967 3.06304 8.62882C3.0907 9.39015 3.11934 10.1773 2.89945 10.8547C2.69009 11.4992 2.21548 12.0995 1.75646 12.6801C1.16896 13.4228 0.561664 14.1908 0.561664 14.9999C0.561664 15.809 1.16896 16.5771 1.75632 17.3199C2.21534 17.9003 2.68995 18.5008 2.89931 19.1453C3.1192 19.8225 3.09056 20.6098 3.0629 21.3712C3.02765 22.3403 2.99437 23.2557 3.4437 23.8732C3.89963 24.4998 4.78622 24.751 5.72476 25.0171C6.45324 25.2235 7.20643 25.4369 7.77456 25.8503C8.33397 26.2574 8.76421 26.9026 9.1804 27.5266C9.72564 28.3441 10.2405 29.1162 10.9906 29.3598C11.6997 29.5901 12.5502 29.2788 13.4509 28.9495C14.1763 28.684 14.9265 28.4096 15.6564 28.4096Z" fill="#3762CC"/>
<path d="M15.6557 25.8822C9.65514 25.8822 4.77344 21.0005 4.77344 14.9999C4.77344 8.99938 9.65514 4.11768 15.6557 4.11768C21.6561 4.11768 26.5379 8.99938 26.5379 14.9999C26.5379 21.0005 21.6561 25.8822 15.6557 25.8822ZM15.6557 4.67934C9.9649 4.67934 5.3351 9.30914 5.3351 14.9999C5.3351 20.6907 9.9649 25.3205 15.6557 25.3205C21.3465 25.3205 25.9763 20.6907 25.9763 14.9999C25.9763 9.30914 21.3465 4.67934 15.6557 4.67934Z" fill="#3762CC"/>
<path d="M15.6565 23.3548C11.0496 23.3548 7.30176 19.6069 7.30176 15C7.30176 10.3931 11.0496 6.64526 15.6565 6.64526C20.2634 6.64526 24.0113 10.3931 24.0113 15C24.0113 19.6069 20.2634 23.3548 15.6565 23.3548ZM15.6565 7.20693C11.3594 7.20693 7.86342 10.7029 7.86342 15C7.86342 19.2972 11.3594 22.7931 15.6565 22.7931C19.9537 22.7931 23.4496 19.2972 23.4496 15C23.4496 10.7029 19.9537 7.20693 15.6565 7.20693Z" fill="#3762CC"/>
<path d="M12.9705 19.8595L12.9418 19.8592C12.4515 19.8509 11.9901 19.6301 11.676 19.2533L8.80489 15.8095C8.58865 15.5503 8.48643 15.2223 8.51704 14.8861C8.54751 14.5499 8.70716 14.2458 8.96637 14.0296C9.22558 13.8133 9.55443 13.7112 9.88989 13.7417C10.2262 13.7722 10.5303 13.9318 10.7464 14.191L12.9924 16.8851L19.0377 10.1127C19.2625 9.86089 19.572 9.71177 19.909 9.69253C20.2457 9.67329 20.5702 9.78661 20.822 10.0114C21.0739 10.2362 21.223 10.5456 21.2421 10.8826C21.2613 11.2196 21.1479 11.5439 20.9232 11.7957L14.2276 19.2966C13.9082 19.6544 13.45 19.8595 12.9705 19.8595ZM9.77432 14.298C9.61046 14.298 9.45333 14.3548 9.32597 14.4609C9.02857 14.7089 8.98841 15.1523 9.23625 15.4497L12.1073 18.8937C12.3167 19.1449 12.6243 19.2922 12.9512 19.2977L12.9703 19.2978C13.2899 19.2978 13.5955 19.1611 13.8082 18.9226L20.5038 11.4218C20.6288 11.2818 20.6917 11.1017 20.6811 10.9144C20.6705 10.7273 20.5876 10.5554 20.4476 10.4304C20.3076 10.3054 20.1279 10.2424 19.9404 10.2532C19.7533 10.2639 19.5813 10.3467 19.4566 10.4866L13.1944 17.5018C13.1401 17.5626 13.0616 17.5988 12.9802 17.5954C12.8984 17.594 12.8215 17.5572 12.7693 17.4945L10.3149 14.5505C10.1949 14.4064 10.0259 14.3178 9.8392 14.3008C9.81743 14.2989 9.79581 14.298 9.77432 14.298Z" fill="#3762CC"/>
</svg>
