<svg width="34" height="30" viewBox="0 0 34 30" fill="none" xmlns="http://www.w3.org/2000/svg">
<path d="M31.8235 27.6307H26.4907V20.4772C26.4907 19.9516 26.0629 19.5241 25.5376 19.5241H22.1408C21.6155 19.5241 21.1878 19.9516 21.1878 20.4772V27.6307H18.8226V13.892C18.8226 13.3663 18.3948 12.9389 17.8695 12.9389H14.4733C13.9479 12.9389 13.5202 13.3663 13.5202 13.892V27.6307H11.155V7.30649C11.155 6.78086 10.7273 6.35342 10.202 6.35342H6.80548C6.28013 6.35342 5.85241 6.78086 5.85241 7.30649V27.6307H3.53021V2.34504C3.53021 1.6921 2.99876 1.16064 2.34581 1.16064C1.69259 1.16064 1.16113 1.6921 1.16113 2.34504V28.4593C1.16113 29.3086 1.85236 29.9998 2.70196 29.9998H31.8235C32.4767 29.9998 33.0082 29.4684 33.0082 28.8154C33.0082 28.1622 32.4767 27.6307 31.8235 27.6307Z" fill="#E6E7E8"/>
<path d="M9.68222 26.7475V6.12895C9.68222 5.76531 9.38737 5.47046 9.02373 5.47046H5.62724C5.2636 5.47046 4.96875 5.76531 4.96875 6.12895V26.7475H9.68222Z" fill="#FA759E"/>
<path d="M9.02373 5.47046H5.62724C5.2636 5.47046 4.96875 5.76531 4.96875 6.12895V7.0124C4.96875 6.64876 5.2636 6.3539 5.62724 6.3539H9.02373C9.38737 6.3539 9.68222 6.64876 9.68222 7.0124V6.12895C9.68222 5.76531 9.38737 5.47046 9.02373 5.47046Z" fill="white"/>
<path d="M17.3495 26.7475V12.7142C17.3495 12.3505 17.0546 12.0557 16.691 12.0557H13.2942C12.9306 12.0557 12.6357 12.3505 12.6357 12.7142V26.7475H17.3495Z" fill="#FFD7E5"/>
<path d="M24.3587 18.6414H20.9622C20.5986 18.6414 20.3037 18.9362 20.3037 19.2999V26.7477H25.0172V19.2999C25.0172 18.9362 24.7223 18.6414 24.3587 18.6414Z" fill="#6DC9F7"/>
<path d="M30.6454 28.5276H1.5236C0.835427 28.5276 0.277344 27.9698 0.277344 27.2814V1.16745C0.277344 0.675935 0.675935 0.277344 1.16745 0.277344C1.65896 0.277344 2.05755 0.675935 2.05755 1.16745V26.7474H30.6454C31.1369 26.7474 31.5355 27.146 31.5355 27.6375C31.5355 28.1293 31.1369 28.5276 30.6454 28.5276Z" fill="#0089EF"/>
<path d="M9.68265 13.7021C9.52926 13.7021 9.40527 13.8264 9.40527 13.9795V15.408C9.40527 15.5611 9.52926 15.6854 9.68265 15.6854C9.83604 15.6854 9.96003 15.5611 9.96003 15.408V13.9795C9.96003 13.8264 9.83604 13.7021 9.68265 13.7021Z" fill="#3A2C60"/>
<path d="M30.6452 26.4701H25.2951V19.2996C25.2951 18.7834 24.8752 18.3635 24.3593 18.3635H20.9628C20.4469 18.3635 20.0269 18.7834 20.0269 19.2996V26.4701H17.6276V12.7141C17.6276 12.1982 17.2076 11.7783 16.6917 11.7783H13.2952C12.7793 11.7783 12.3594 12.1982 12.3594 12.7141V26.4701H9.96006V16.6485C9.96006 16.4953 9.83607 16.3711 9.68268 16.3711C9.52929 16.3711 9.4053 16.4953 9.4053 16.6485V26.4701H5.24631V6.12893C5.24631 5.91867 5.41718 5.74753 5.62743 5.74753H9.02391C9.23416 5.74753 9.40503 5.91867 9.40503 6.12893V12.8517C9.40503 13.0048 9.52901 13.1291 9.6824 13.1291C9.83579 13.1291 9.95978 13.0048 9.95978 12.8517V6.12893C9.95978 5.61273 9.53983 5.19278 9.02391 5.19278H5.62743C5.11151 5.19278 4.69156 5.61273 4.69156 6.12893V26.4701H2.33496V1.16748C2.33496 0.523688 1.81127 0 1.16748 0C0.523688 0 0 0.523688 0 1.16748V27.2814C0 28.1216 0.683457 28.8051 1.52363 28.8051H30.6452C31.289 28.8051 31.8129 28.2814 31.8129 27.6376C31.8129 26.9938 31.2892 26.4701 30.6452 26.4701ZM20.5817 19.2996C20.5817 19.0894 20.7525 18.9182 20.9628 18.9182H24.3593C24.5695 18.9182 24.7404 19.0894 24.7404 19.2996V26.4701H20.5817V19.2996ZM12.9141 12.7141C12.9141 12.5039 13.085 12.333 13.2952 12.333H16.6917C16.902 12.333 17.0728 12.5039 17.0728 12.7141V26.4701H12.9141V12.7141ZM30.6452 28.2506H1.52363C0.989404 28.2506 0.554754 27.8159 0.554754 27.2817V1.16748C0.554754 0.829635 0.829635 0.554754 1.16748 0.554754C1.50533 0.554754 1.78021 0.829635 1.78021 1.16748V26.7475C1.78021 26.9006 1.90419 27.0249 2.05758 27.0249H12.6367H17.3502H20.3043H25.0178H30.6452C30.9833 27.0249 31.2582 27.2997 31.2582 27.6376C31.2582 27.9754 30.9833 28.2506 30.6452 28.2506Z" fill="#3A2C60"/>
</svg>
