<svg width="35" height="30" viewBox="0 0 35 30" fill="none" xmlns="http://www.w3.org/2000/svg">
<path d="M16.4419 0.288574H2.59578C1.32135 0.288574 0.288086 1.32184 0.288086 2.59627V11.827C0.288086 13.1015 1.32135 14.1347 2.59578 14.1347H6.05732V18.1732H8.36501V14.1347H16.4419C17.7164 14.1347 18.7496 13.1015 18.7496 11.827V2.59627C18.7496 1.32184 17.7164 0.288574 16.4419 0.288574Z" fill="#005B8A"/>
<path d="M8.36538 18.4615H6.05769C5.89846 18.4615 5.76923 18.3323 5.76923 18.1731V14.4231H2.59615C1.16481 14.4231 0 13.2583 0 11.8269V2.59615C0 1.16481 1.16481 0 2.59615 0H16.4423C17.8737 0 19.0385 1.16481 19.0385 2.59615V11.8269C19.0385 13.2583 17.8737 14.4231 16.4423 14.4231H8.65385V18.1731C8.65385 18.3323 8.52519 18.4615 8.36538 18.4615ZM6.34615 17.8846H8.07692V14.1346C8.07692 13.9754 8.20615 13.8462 8.36538 13.8462H16.4423C17.5558 13.8462 18.4615 12.9404 18.4615 11.8269V2.59615C18.4615 1.48269 17.5558 0.576923 16.4423 0.576923H2.59615C1.48269 0.576923 0.576923 1.48269 0.576923 2.59615V11.8269C0.576923 12.9404 1.48269 13.8462 2.59615 13.8462H6.05769C6.21692 13.8462 6.34615 13.9754 6.34615 14.1346V17.8846Z" fill="#212A41"/>
<path d="M18.7495 0.288574H4.9034C3.62897 0.288574 2.5957 1.32184 2.5957 2.59627V11.827C2.5957 13.1015 3.62897 14.1347 4.9034 14.1347H8.36493V18.1732L14.1342 14.1347H18.7495C20.024 14.1347 21.0572 13.1015 21.0572 11.827V2.59627C21.0572 1.32184 20.024 0.288574 18.7495 0.288574Z" fill="#0079A8"/>
<path d="M8.36531 18.4615C8.31973 18.4615 8.27415 18.4506 8.23262 18.4287C8.13685 18.379 8.07685 18.2804 8.07685 18.1731V14.4231H4.90377C3.47242 14.4231 2.30762 13.2583 2.30762 11.8269V2.59615C2.30762 1.16481 3.47242 0 4.90377 0H18.7499C20.1813 0 21.3461 1.16481 21.3461 2.59615V11.8269C21.3461 13.2583 20.1813 14.4231 18.7499 14.4231H14.2251L8.53089 18.4096C8.48127 18.4442 8.42358 18.4615 8.36531 18.4615ZM4.90377 0.576923C3.79031 0.576923 2.88454 1.48269 2.88454 2.59615V11.8269C2.88454 12.9404 3.79031 13.8462 4.90377 13.8462H8.36531C8.52454 13.8462 8.65377 13.9754 8.65377 14.1346V17.6192L13.969 13.8987C14.0174 13.8646 14.0757 13.8467 14.1345 13.8467H18.7499C19.8634 13.8467 20.7692 12.941 20.7692 11.8275V2.59673C20.7692 1.48327 19.8634 0.5775 18.7499 0.5775L4.90377 0.576923Z" fill="#212A41"/>
<path d="M3.7494 12.1156C3.59017 12.1156 3.46094 11.9863 3.46094 11.8271V2.59632C3.46094 2.43709 3.59017 2.30786 3.7494 2.30786C3.90863 2.30786 4.03786 2.43709 4.03786 2.59632V11.8271C4.03786 11.9863 3.90921 12.1156 3.7494 12.1156Z" fill="#1E97C6"/>
<path d="M19.9037 12.1153C19.7445 12.1153 19.6152 11.9861 19.6152 11.8268V2.59608C19.6152 2.43685 19.7445 2.30762 19.9037 2.30762C20.0629 2.30762 20.1922 2.43685 20.1922 2.59608V11.8268C20.1922 11.9861 20.0635 12.1153 19.9037 12.1153Z" fill="#005B8A"/>
<path d="M29.1343 11.8269H15.2882C14.0137 11.8269 12.9805 12.8602 12.9805 14.1346V23.3654C12.9805 24.6398 14.0137 25.6731 15.2882 25.6731H19.3266L23.942 29.7115H26.8266V25.6731H29.1343C30.4087 25.6731 31.442 24.6398 31.442 23.3654V14.1346C31.442 12.8602 30.4087 11.8269 29.1343 11.8269Z" fill="#99A2B9"/>
<path d="M26.827 30.0001H23.9424C23.8726 30.0001 23.8051 29.9747 23.7526 29.9286L19.2191 25.9616H15.2885C13.8572 25.9616 12.6924 24.7968 12.6924 23.3655V14.1347C12.6924 12.7034 13.8572 11.5386 15.2885 11.5386H29.1347C30.566 11.5386 31.7308 12.7034 31.7308 14.1347V23.3655C31.7308 24.7968 30.566 25.9616 29.1347 25.9616H27.1155V29.7117C27.1155 29.8709 26.9868 30.0001 26.827 30.0001ZM24.0508 29.4232H26.5385V25.6732C26.5385 25.514 26.6678 25.3847 26.827 25.3847H29.1347C30.2481 25.3847 31.1539 24.479 31.1539 23.3655V14.1347C31.1539 13.0213 30.2481 12.1155 29.1347 12.1155H15.2885C14.1751 12.1155 13.2693 13.0213 13.2693 14.1347V23.3655C13.2693 24.479 14.1751 25.3847 15.2885 25.3847H19.327C19.3968 25.3847 19.4643 25.4101 19.5168 25.4563L24.0508 29.4232Z" fill="#212A41"/>
<path d="M31.4419 11.8269H17.5958C16.3214 11.8269 15.2881 12.8602 15.2881 14.1346V23.3654C15.2881 24.6398 16.3214 25.6731 17.5958 25.6731H22.2112L26.8265 29.7115V25.6731H31.4419C32.7164 25.6731 33.7496 24.6398 33.7496 23.3654V14.1346C33.7496 12.8602 32.7164 11.8269 31.4419 11.8269Z" fill="#B7C0D7"/>
<path d="M26.8269 30.0001C26.7583 30.0001 26.6908 29.9759 26.6371 29.9286L22.1037 25.9616H17.5962C16.1648 25.9616 15 24.7968 15 23.3655V14.1347C15 12.7034 16.1648 11.5386 17.5962 11.5386H31.4423C32.8737 11.5386 34.0385 12.7034 34.0385 14.1347V23.3655C34.0385 24.7968 32.8737 25.9616 31.4423 25.9616H27.1154V29.7117C27.1154 29.8247 27.0496 29.9274 26.9463 29.9742C26.9083 29.9915 26.8679 30.0001 26.8269 30.0001ZM17.5962 12.1155C16.4827 12.1155 15.5769 13.0213 15.5769 14.1347V23.3655C15.5769 24.479 16.4827 25.3847 17.5962 25.3847H22.2115C22.2813 25.3847 22.3488 25.4101 22.4013 25.4563L26.5385 29.0759V25.6732C26.5385 25.514 26.6677 25.3847 26.8269 25.3847H31.4423C32.5558 25.3847 33.4615 24.479 33.4615 23.3655V14.1347C33.4615 13.0213 32.5558 12.1155 31.4423 12.1155H17.5962Z" fill="#212A41"/>
<path d="M16.4418 23.6539C16.2826 23.6539 16.1533 23.5247 16.1533 23.3654V14.1347C16.1533 13.9754 16.2826 13.8462 16.4418 13.8462C16.601 13.8462 16.7302 13.9754 16.7302 14.1347V23.3654C16.7302 23.5247 16.6016 23.6539 16.4418 23.6539Z" fill="#D5DEF5"/>
<path d="M32.5961 23.6539C32.4368 23.6539 32.3076 23.5247 32.3076 23.3654V14.1347C32.3076 13.9754 32.4368 13.8462 32.5961 13.8462C32.7553 13.8462 32.8845 13.9754 32.8845 14.1347V23.3654C32.8845 23.5247 32.7559 23.6539 32.5961 23.6539Z" fill="#99A2B9"/>
<path d="M24.5191 19.9039C25.1563 19.9039 25.6729 19.3873 25.6729 18.75C25.6729 18.1128 25.1563 17.5962 24.5191 17.5962C23.8818 17.5962 23.3652 18.1128 23.3652 18.75C23.3652 19.3873 23.8818 19.9039 24.5191 19.9039Z" fill="#E0E0E0"/>
<path d="M24.5195 20.1922C23.7239 20.1922 23.0771 19.5449 23.0771 18.7499C23.0771 17.9549 23.7239 17.3076 24.5195 17.3076C25.315 17.3076 25.9618 17.9549 25.9618 18.7499C25.9618 19.5449 25.315 20.1922 24.5195 20.1922ZM24.5195 17.8845C24.0423 17.8845 23.6541 18.2728 23.6541 18.7499C23.6541 19.227 24.0423 19.6153 24.5195 19.6153C24.9966 19.6153 25.3848 19.227 25.3848 18.7499C25.3848 18.2728 24.9966 17.8845 24.5195 17.8845Z" fill="#212A41"/>
<path d="M20.481 19.9041C21.1182 19.9041 21.6348 19.3875 21.6348 18.7503C21.6348 18.113 21.1182 17.5964 20.481 17.5964C19.8437 17.5964 19.3271 18.113 19.3271 18.7503C19.3271 19.3875 19.8437 19.9041 20.481 19.9041Z" fill="#E0E0E0"/>
<path d="M20.4814 20.1925C19.6858 20.1925 19.0391 19.5452 19.0391 18.7502C19.0391 17.9552 19.6858 17.3079 20.4814 17.3079C21.2769 17.3079 21.9237 17.9552 21.9237 18.7502C21.9237 19.5452 21.2769 20.1925 20.4814 20.1925ZM20.4814 17.8848C20.0043 17.8848 19.616 18.2731 19.616 18.7502C19.616 19.2273 20.0043 19.6156 20.4814 19.6156C20.9585 19.6156 21.3468 19.2273 21.3468 18.7502C21.3468 18.2731 20.9585 17.8848 20.4814 17.8848Z" fill="#212A41"/>
<path d="M28.5581 19.9039C29.1954 19.9039 29.712 19.3873 29.712 18.75C29.712 18.1128 29.1954 17.5962 28.5581 17.5962C27.9209 17.5962 27.4043 18.1128 27.4043 18.75C27.4043 19.3873 27.9209 19.9039 28.5581 19.9039Z" fill="#E0E0E0"/>
<path d="M28.5575 20.1922C27.762 20.1922 27.1152 19.5449 27.1152 18.7499C27.1152 17.9549 27.762 17.3076 28.5575 17.3076C29.3531 17.3076 29.9998 17.9549 29.9998 18.7499C29.9998 19.5449 29.3531 20.1922 28.5575 20.1922ZM28.5575 17.8845C28.0804 17.8845 27.6922 18.2728 27.6922 18.7499C27.6922 19.227 28.0804 19.6153 28.5575 19.6153C29.0347 19.6153 29.4229 19.227 29.4229 18.7499C29.4229 18.2728 29.0347 17.8845 28.5575 17.8845Z" fill="#212A41"/>
<path d="M11.8267 8.36531C12.4639 8.36531 12.9805 7.84871 12.9805 7.21146C12.9805 6.57421 12.4639 6.05762 11.8267 6.05762C11.1894 6.05762 10.6729 6.57421 10.6729 7.21146C10.6729 7.84871 11.1894 8.36531 11.8267 8.36531Z" fill="#E0E0E0"/>
<path d="M11.8271 8.6539C11.0315 8.6539 10.3848 8.00659 10.3848 7.21159C10.3848 6.41659 11.0315 5.76929 11.8271 5.76929C12.6226 5.76929 13.2694 6.41659 13.2694 7.21159C13.2694 8.00659 12.6226 8.6539 11.8271 8.6539ZM11.8271 6.34621C11.35 6.34621 10.9617 6.73448 10.9617 7.21159C10.9617 7.68871 11.35 8.07698 11.8271 8.07698C12.3042 8.07698 12.6925 7.68871 12.6925 7.21159C12.6925 6.73448 12.3042 6.34621 11.8271 6.34621Z" fill="#212A41"/>
<path d="M7.78861 8.36555C8.42586 8.36555 8.94246 7.84896 8.94246 7.21171C8.94246 6.57446 8.42586 6.05786 7.78861 6.05786C7.15136 6.05786 6.63477 6.57446 6.63477 7.21171C6.63477 7.84896 7.15136 8.36555 7.78861 8.36555Z" fill="#E0E0E0"/>
<path d="M7.78899 8.6539C6.99341 8.6539 6.34668 8.00659 6.34668 7.21159C6.34668 6.41659 6.99341 5.76929 7.78899 5.76929C8.58456 5.76929 9.2313 6.41659 9.2313 7.21159C9.2313 8.00659 8.58456 8.6539 7.78899 8.6539ZM7.78899 6.34621C7.31187 6.34621 6.9236 6.73448 6.9236 7.21159C6.9236 7.68871 7.31187 8.07698 7.78899 8.07698C8.2661 8.07698 8.65437 7.68871 8.65437 7.21159C8.65437 6.73448 8.2661 6.34621 7.78899 6.34621Z" fill="#212A41"/>
<path d="M15.8658 8.36531C16.503 8.36531 17.0196 7.84871 17.0196 7.21146C17.0196 6.57421 16.503 6.05762 15.8658 6.05762C15.2285 6.05762 14.7119 6.57421 14.7119 7.21146C14.7119 7.84871 15.2285 8.36531 15.8658 8.36531Z" fill="#E0E0E0"/>
<path d="M15.8652 8.6539C15.0696 8.6539 14.4229 8.00659 14.4229 7.21159C14.4229 6.41659 15.0696 5.76929 15.8652 5.76929C16.6607 5.76929 17.3075 6.41659 17.3075 7.21159C17.3075 8.00659 16.6607 8.6539 15.8652 8.6539ZM15.8652 6.34621C15.388 6.34621 14.9998 6.73448 14.9998 7.21159C14.9998 7.68871 15.388 8.07698 15.8652 8.07698C16.3423 8.07698 16.7305 7.68871 16.7305 7.21159C16.7305 6.73448 16.3423 6.34621 15.8652 6.34621Z" fill="#212A41"/>
</svg>
