<svg width="188" height="225" viewBox="0 0 188 225" fill="none" xmlns="http://www.w3.org/2000/svg">
<path d="M217.507 117.313C216.749 132.416 212.725 147.176 205.712 160.582C198.699 173.989 188.862 185.725 176.875 194.988C164.888 204.251 151.033 210.821 136.259 214.25C121.486 217.679 106.142 217.885 91.2781 214.854C88.5197 214.294 85.7861 213.624 83.0775 212.844C62.9225 207.037 44.9609 195.37 31.4908 179.334C18.0207 163.297 9.6547 143.622 7.46309 122.824C4.2099 91.8645 14.9423 60.4717 37.464 37.9138C51.2461 24.0988 68.5962 14.3569 87.5933 9.76663C107.924 4.90279 129.249 6.17691 148.857 13.4269C168.465 20.677 185.469 33.5753 197.707 50.4818C199.114 52.4434 200.485 54.4693 201.767 56.5438C213.137 74.7161 218.631 95.9297 217.507 117.313Z" fill="url(#paint0_linear_331_5227)"/>
<g style="mix-blend-mode:multiply" opacity="0.7">
<path d="M217.669 118.013C216.91 133.116 212.887 147.876 205.873 161.282C198.86 174.689 189.024 186.425 177.036 195.688C165.049 204.951 151.194 211.522 136.421 214.95C121.647 218.379 106.303 218.585 91.4396 215.554C119.677 191.62 130.044 169.072 132.975 150.155C138.447 114.879 118.24 91.1126 131.288 60.3764C138.113 44.3046 151.469 32.3677 168.105 23.4672C179.748 30.6816 189.859 40.1008 197.868 51.1918C199.275 53.1534 200.645 55.1794 201.928 57.2539C213.296 75.4233 218.791 96.6332 217.669 118.013Z" fill="url(#paint1_linear_331_5227)"/>
</g>
<mask id="mask0_331_5227" style="mask-type:luminance" maskUnits="userSpaceOnUse" x="6" y="6" width="212" height="211">
<path d="M217.508 117.313C216.75 132.416 212.726 147.176 205.713 160.582C198.7 173.989 188.863 185.725 176.876 194.988C164.889 204.251 151.034 210.821 136.26 214.25C121.487 217.679 106.143 217.885 91.279 214.854C88.5206 214.294 85.7871 213.624 83.0784 212.844C62.9234 207.037 44.9619 195.37 31.4918 179.334C18.0217 163.297 9.65568 143.622 7.46407 122.824C4.21088 91.8645 14.9432 60.4717 37.465 37.9138C51.2471 24.0988 68.5971 14.3569 87.5943 9.76663C107.925 4.90279 129.25 6.17691 148.858 13.4269C168.466 20.677 185.47 33.5753 197.708 50.4818C199.115 52.4434 200.486 54.4693 201.768 56.5438C213.138 74.7161 218.632 95.9297 217.508 117.313Z" fill="white"/>
</mask>
<g mask="url(#mask0_331_5227)">
<path d="M232.031 63.5635C145.728 69.9194 58.929 89.7475 -21.5263 121.488C-21.8287 120.378 -22.1304 119.27 -22.4313 118.162C57.7701 84.9238 144.663 65.0747 231.389 60.1758L232.031 63.5635Z" fill="white"/>
<path d="M243.569 124.534C164.954 157.112 79.7846 176.568 -5.22132 181.37C-5.52376 180.26 -5.82542 179.151 -6.12632 178.044C78.6206 171.746 163.889 152.267 242.926 121.146L243.569 124.534Z" fill="white"/>
<g style="mix-blend-mode:multiply" opacity="0.5">
<path d="M237.795 94.0494C155.339 113.515 69.352 133.158 -13.3834 151.427C-13.6826 150.319 -13.9843 149.21 -14.2884 148.101C68.1906 128.334 154.264 108.67 237.153 90.6617C237.369 91.7903 237.584 92.9195 237.795 94.0494Z" fill="url(#paint2_linear_331_5227)"/>
</g>
<path d="M223.146 77.3366L220.348 77.7439C219.061 77.9366 217.854 77.2758 217.654 76.2647C217.454 75.2536 218.341 74.2986 219.638 74.1314C220.575 74.0066 221.512 73.8868 222.452 73.7646C223.749 73.6048 224.949 74.2602 225.136 75.2334C225.324 76.2065 224.436 77.149 223.146 77.3366ZM209.14 79.4318C205.402 80.0042 201.662 80.5996 197.922 81.218C196.633 81.4304 195.4 80.7183 195.176 79.6263C194.952 78.5343 195.817 77.4913 197.119 77.2971C200.876 76.726 204.63 76.1787 208.383 75.6551C209.676 75.4728 210.898 76.1668 211.102 77.198C211.305 78.2291 210.433 79.2345 209.14 79.4318ZM186.693 83.1124C182.95 83.7554 179.205 84.4098 175.46 85.0758C174.168 85.3102 172.922 84.5626 172.675 83.4022C172.428 82.2419 173.281 81.1287 174.582 80.9122C178.338 80.275 182.094 79.6552 185.85 79.0526C187.148 78.8458 188.39 79.5808 188.618 80.6904C188.846 81.7999 187.988 82.8806 186.693 83.1124ZM164.227 87.1432C160.481 87.8454 156.737 88.5617 152.994 89.2922C151.698 89.5437 150.446 88.7783 150.179 87.5795C149.913 86.3807 150.749 85.207 152.047 84.9631C155.797 84.2545 159.551 83.5636 163.31 82.8903C164.605 82.6585 165.865 83.4195 166.111 84.5897C166.357 85.7599 165.521 86.8792 164.228 87.1333L164.227 87.1432ZM141.767 91.5308C138.025 92.2927 134.286 93.068 130.549 93.8566C129.945 93.9974 129.309 93.8959 128.779 93.5739C128.249 93.2519 127.867 92.7352 127.715 92.1352C127.654 91.8366 127.654 91.5288 127.714 91.23C127.774 90.9312 127.893 90.6473 128.064 90.395C128.235 90.1426 128.455 89.9269 128.711 89.7604C128.967 89.5939 129.254 89.48 129.555 89.4253C133.297 88.6486 137.044 87.8878 140.795 87.143C142.088 86.8864 143.352 87.66 143.621 88.8688C143.676 89.1646 143.672 89.4684 143.609 89.7626C143.546 90.0567 143.424 90.3353 143.252 90.5822C143.079 90.829 142.859 91.0392 142.604 91.2003C142.35 91.3615 142.065 91.4705 141.768 91.521L141.767 91.5308ZM119.345 96.2701C115.614 97.0905 111.884 97.9242 108.155 98.7711C107.855 98.8547 107.542 98.8768 107.233 98.836C106.924 98.7952 106.627 98.6925 106.36 98.5339C106.092 98.3754 105.86 98.1643 105.676 97.9136C105.493 97.6629 105.363 97.3777 105.293 97.0753C105.224 96.7729 105.216 96.4596 105.272 96.1544C105.327 95.8491 105.444 95.5583 105.616 95.2996C105.787 95.0408 106.01 94.8195 106.27 94.649C106.53 94.4785 106.822 94.3625 107.128 94.3078C110.861 93.4594 114.595 92.6286 118.332 91.8152C118.937 91.6715 119.575 91.7714 120.106 92.0933C120.638 92.4152 121.02 92.9331 121.171 93.5345C121.231 93.8332 121.232 94.1409 121.173 94.4397C121.113 94.7386 120.995 95.0228 120.825 95.276C120.655 95.5293 120.437 95.7465 120.183 95.9154C119.928 96.0843 119.643 96.2014 119.343 96.26L119.345 96.2701ZM96.9862 101.358C93.2637 102.227 89.5467 103.113 85.8351 104.017C85.5404 104.098 85.2325 104.119 84.9295 104.079C84.6265 104.04 84.3343 103.941 84.07 103.788C83.8056 103.635 83.5743 103.432 83.3895 103.189C83.2047 102.946 83.0701 102.669 82.9935 102.375C82.868 101.767 82.9862 101.136 83.3227 100.615C83.6593 100.094 84.1873 99.7249 84.7936 99.5877C88.506 98.6719 92.2239 97.7731 95.9472 96.8911C96.2444 96.8134 96.5542 96.7953 96.8585 96.8378C97.1629 96.8802 97.4557 96.9824 97.7203 97.1384C97.9848 97.2944 98.2156 97.5011 98.3995 97.7466C98.5834 97.9922 98.7166 98.2716 98.7915 98.5687C98.9184 99.1759 98.7999 99.8085 98.4615 100.329C98.1231 100.849 97.5923 101.215 96.9844 101.348L96.9862 101.358ZM74.7165 106.783C71.0113 107.714 67.3135 108.66 63.6229 109.62C62.3589 109.95 61.0823 109.255 60.7953 108.065C60.5082 106.874 61.3022 105.636 62.5794 105.294C66.2715 104.311 69.9683 103.345 73.6697 102.395C73.9618 102.311 74.2678 102.287 74.5696 102.322C74.8715 102.358 75.1632 102.454 75.4275 102.603C75.6918 102.753 75.9234 102.954 76.1086 103.195C76.2939 103.435 76.4291 103.71 76.5062 104.003C76.6291 104.606 76.5105 105.234 76.1759 105.751C75.8412 106.269 75.3168 106.636 74.7147 106.773L74.7165 106.783ZM52.569 112.531C48.8882 113.518 45.2148 114.518 41.5488 115.531C40.2834 115.881 39.0254 115.242 38.7423 114.104C38.4592 112.966 39.2544 111.745 40.5181 111.382C44.1833 110.333 47.8547 109.3 51.5325 108.285C52.798 107.932 54.0636 108.607 54.3514 109.785C54.6393 110.963 53.8336 112.191 52.569 112.531ZM30.5527 118.615C26.8998 119.655 23.2542 120.709 19.616 121.776C18.3495 122.144 17.1191 121.573 16.8463 120.502C16.5735 119.432 17.3636 118.25 18.6165 117.864C22.2512 116.75 25.8915 115.653 29.5372 114.573C30.804 114.201 32.0495 114.805 32.3284 115.933C32.6072 117.06 31.8186 118.257 30.5527 118.615ZM8.72843 125.018C5.10501 126.112 1.49141 127.219 -2.11237 128.34C-3.35515 128.724 -4.57405 128.24 -4.83784 127.257C-5.10164 126.274 -4.30561 125.152 -3.06347 124.741C0.532541 123.563 4.13723 122.404 7.75057 121.264C9.00013 120.853 10.2248 121.399 10.502 122.44C10.7793 123.481 9.97879 124.632 8.72843 125.018Z" fill="white"/>
<path d="M224.819 85.9035L222.053 86.417C220.78 86.6552 219.596 86.0305 219.386 85.0212C219.176 84.0119 220.065 83.0175 221.346 82.8021L224.127 82.3341C225.405 82.1211 226.582 82.7477 226.785 83.712C226.988 84.6763 226.089 85.6675 224.819 85.9035ZM210.963 88.499C207.262 89.2009 203.558 89.9126 199.853 90.634C198.574 90.8842 197.354 90.2027 197.13 89.1107C196.905 88.0187 197.773 86.9437 199.05 86.7132C202.771 86.0389 206.489 85.3753 210.205 84.7222C211.487 84.4995 212.697 85.158 212.9 86.1892C213.103 87.2203 212.239 88.256 210.963 88.499ZM188.726 92.82C185.014 93.5592 181.3 94.304 177.584 95.0544C176.3 95.3166 175.065 94.592 174.817 93.4366C174.57 92.2812 175.412 91.1425 176.7 90.8954C180.429 90.1772 184.156 89.4687 187.88 88.7699C189.17 88.5304 190.399 89.2373 190.627 90.3468C190.855 91.4564 190.01 92.5627 188.726 92.82ZM166.431 97.3351C162.714 98.1037 158.994 98.8811 155.272 99.6675C153.985 99.9369 152.729 99.1886 152.47 97.9927C152.211 96.7969 153.036 95.6051 154.325 95.3433C158.055 94.5806 161.786 93.8278 165.516 93.0849C166.8 92.8301 168.049 93.573 168.3 94.741C168.551 95.9091 167.715 97.0729 166.431 97.3351ZM144.107 102.049C140.386 102.85 136.664 103.66 132.942 104.477C132.341 104.623 131.705 104.525 131.176 104.205C130.646 103.885 130.266 103.368 130.117 102.769C130.057 102.47 130.056 102.162 130.115 101.863C130.174 101.564 130.293 101.28 130.463 101.027C130.633 100.773 130.852 100.556 131.107 100.388C131.362 100.22 131.648 100.103 131.948 100.046C135.675 99.2384 139.403 98.4426 143.133 97.6584C143.732 97.5157 144.364 97.6142 144.891 97.9325C145.418 98.2508 145.798 98.7633 145.948 99.3588C146.006 99.6564 146.004 99.9624 145.942 100.259C145.881 100.556 145.761 100.838 145.59 101.088C145.419 101.339 145.2 101.553 144.945 101.719C144.691 101.884 144.406 101.998 144.107 102.054L144.107 102.049ZM121.779 106.95C118.06 107.783 114.342 108.623 110.622 109.469C110.323 109.552 110.009 109.574 109.701 109.533C109.392 109.493 109.095 109.39 108.827 109.231C108.56 109.073 108.327 108.862 108.144 108.611C107.961 108.36 107.83 108.075 107.761 107.773C107.691 107.47 107.684 107.157 107.739 106.852C107.795 106.547 107.912 106.256 108.083 105.997C108.255 105.738 108.477 105.517 108.737 105.346C108.997 105.176 109.289 105.06 109.596 105.005C113.318 104.158 117.042 103.32 120.767 102.493C121.065 102.412 121.378 102.392 121.684 102.434C121.991 102.477 122.286 102.581 122.552 102.74C122.817 102.899 123.048 103.11 123.229 103.36C123.411 103.61 123.54 103.895 123.608 104.196C123.676 104.497 123.683 104.809 123.627 105.112C123.571 105.416 123.455 105.705 123.284 105.963C123.113 106.22 122.891 106.44 122.633 106.61C122.374 106.78 122.084 106.896 121.779 106.95ZM99.4775 112.034C95.7639 112.894 92.053 113.763 88.3449 114.641C88.0489 114.718 87.7407 114.736 87.4377 114.694C87.1347 114.652 86.843 114.551 86.5791 114.397C86.3153 114.242 86.0847 114.037 85.9003 113.794C85.7159 113.551 85.5814 113.274 85.5046 112.978C85.378 112.374 85.4957 111.745 85.832 111.226C86.1683 110.708 86.6962 110.343 87.3009 110.211C91.0032 109.323 94.7163 108.445 98.4403 107.578C98.7391 107.495 99.0517 107.473 99.3592 107.514C99.6668 107.554 99.9629 107.656 100.23 107.814C100.497 107.972 100.729 108.182 100.912 108.432C101.095 108.681 101.226 108.965 101.296 109.267C101.366 109.568 101.374 109.88 101.32 110.185C101.266 110.489 101.15 110.779 100.98 111.038C100.81 111.297 100.589 111.518 100.331 111.69C100.073 111.861 99.7825 111.978 99.4775 112.034ZM77.2288 117.295C73.5264 118.185 69.8236 119.083 66.1202 119.988C64.8573 120.301 63.5743 119.59 63.2897 118.4C63.0052 117.21 63.8008 115.984 65.0767 115.662C68.7698 114.736 72.4674 113.819 76.1695 112.909C76.4635 112.828 76.7706 112.807 77.0731 112.845C77.3756 112.884 77.6675 112.982 77.9317 113.134C78.1959 113.285 78.4272 113.488 78.6122 113.73C78.7972 113.972 78.9322 114.248 79.0093 114.542C79.1369 115.142 79.0215 115.769 78.688 116.284C78.3545 116.8 77.83 117.163 77.2288 117.295ZM55.0604 122.728C51.3726 123.647 47.6902 124.572 44.0132 125.503C42.7499 125.824 41.4886 125.159 41.203 124.021C40.9174 122.883 41.7187 121.682 42.9854 121.349C46.6599 120.381 50.3387 119.425 54.0216 118.479C55.2855 118.151 56.5573 118.843 56.8452 120.021C57.133 121.199 56.3312 122.408 55.0604 122.728ZM33.0007 128.316C29.3343 129.261 25.6742 130.212 22.0202 131.17C20.7562 131.5 19.513 130.899 19.2402 129.828C18.9674 128.758 19.7629 127.606 21.0207 127.258C24.6695 126.254 28.3244 125.259 31.9852 124.274C33.2497 123.936 34.5032 124.568 34.7818 125.701C35.0603 126.834 34.2646 127.988 33.0011 128.311L33.0007 128.316ZM11.0769 134.061C7.43529 135.031 3.80157 136.008 0.1757 136.99C-1.08863 137.326 -2.29499 136.804 -2.56339 135.815C-2.8318 134.827 -2.02575 133.74 -0.777051 133.379C2.84271 132.34 6.4718 131.309 10.1102 130.288C11.3634 129.934 12.599 130.501 12.8733 131.549C13.1476 132.597 12.3339 133.723 11.0772 134.057L11.0769 134.061Z" fill="white"/>
<path d="M228.848 106.614L226.157 107.378C224.916 107.729 223.748 107.197 223.55 106.186C223.353 105.175 224.203 104.094 225.452 103.763L228.158 103.045C229.405 102.713 230.564 103.235 230.754 104.21C230.944 105.186 230.086 106.262 228.848 106.614ZM215.356 110.405C211.747 111.407 208.132 112.4 204.511 113.385C203.246 113.725 202.065 113.115 201.839 112.023C201.612 110.931 202.449 109.787 203.705 109.464C207.343 108.525 210.974 107.581 214.597 106.633C215.861 106.305 217.027 106.879 217.243 107.911C217.458 108.943 216.596 110.056 215.356 110.4L215.356 110.405ZM193.617 116.304C189.981 117.271 186.34 118.231 182.695 119.182C181.431 119.51 180.22 118.839 179.97 117.684C179.721 116.528 180.548 115.339 181.812 115.021C185.469 114.105 189.123 113.183 192.771 112.254C194.035 111.936 195.233 112.577 195.472 113.675C195.71 114.772 194.882 115.969 193.617 116.304ZM171.739 122.004C168.08 122.936 164.417 123.862 160.751 124.781C159.488 125.099 158.243 124.383 157.981 123.182C157.871 122.58 157.999 121.959 158.339 121.449C158.679 120.94 159.205 120.582 159.805 120.452C163.478 119.556 167.15 118.656 170.822 117.751C172.085 117.438 173.317 118.132 173.568 119.3C173.819 120.469 173.007 121.686 171.746 122.009L171.739 122.004ZM149.737 127.507C146.06 128.413 142.381 129.304 138.699 130.179C138.405 130.256 138.099 130.273 137.798 130.23C137.496 130.187 137.207 130.085 136.946 129.929C136.685 129.773 136.458 129.566 136.279 129.322C136.099 129.077 135.97 128.799 135.9 128.504C135.777 127.899 135.898 127.271 136.235 126.754C136.573 126.237 137.101 125.873 137.706 125.74C141.395 124.871 145.082 123.994 148.765 123.111C149.056 123.032 149.36 123.011 149.658 123.051C149.957 123.091 150.245 123.19 150.505 123.343C150.764 123.495 150.991 123.698 151.17 123.94C151.35 124.181 151.479 124.456 151.55 124.748C151.668 125.352 151.545 125.978 151.208 126.494C150.871 127.01 150.346 127.375 149.744 127.512L149.737 127.507ZM127.643 132.8C123.954 133.665 120.262 134.52 116.567 135.366C116.269 135.445 115.958 135.464 115.652 135.42C115.346 135.377 115.052 135.273 114.788 135.114C114.523 134.955 114.294 134.744 114.113 134.495C113.931 134.245 113.802 133.962 113.733 133.662C113.665 133.362 113.657 133.051 113.711 132.748C113.765 132.445 113.88 132.156 114.049 131.898C114.217 131.641 114.436 131.419 114.693 131.248C114.949 131.076 115.238 130.958 115.541 130.9C119.24 130.054 122.94 129.202 126.64 128.343C126.936 128.269 127.244 128.253 127.546 128.297C127.848 128.342 128.138 128.445 128.399 128.602C128.661 128.759 128.888 128.966 129.069 129.212C129.25 129.457 129.38 129.736 129.452 130.031C129.578 130.637 129.46 131.268 129.122 131.788C128.785 132.307 128.256 132.673 127.65 132.806L127.643 132.8ZM105.491 137.882C101.793 138.708 98.095 139.526 94.3979 140.338C93.7955 140.479 93.1614 140.38 92.6314 140.061C92.1015 139.742 91.718 139.228 91.5631 138.631C91.4984 138.335 91.4936 138.028 91.5489 137.73C91.6042 137.432 91.7185 137.148 91.8853 136.895C92.052 136.641 92.2677 136.423 92.5199 136.254C92.7721 136.084 93.0556 135.967 93.354 135.908C97.0516 135.088 100.75 134.261 104.448 133.425C105.051 133.28 105.687 133.378 106.218 133.698C106.748 134.018 107.13 134.534 107.281 135.134C107.345 135.432 107.35 135.739 107.295 136.039C107.24 136.338 107.126 136.624 106.959 136.88C106.793 137.135 106.578 137.355 106.326 137.527C106.073 137.699 105.79 137.82 105.491 137.882ZM83.2918 142.735C79.596 143.528 75.8943 144.31 72.1869 145.079C70.9099 145.344 69.6369 144.594 69.3525 143.402C69.0681 142.209 69.8685 141.023 71.1435 140.75C74.8394 139.956 78.5408 139.155 82.2475 138.348C82.8483 138.205 83.4816 138.302 84.0115 138.619C84.5415 138.935 84.9262 139.446 85.0831 140.042C85.1479 140.337 85.1526 140.641 85.0969 140.938C85.0412 141.234 84.9262 141.516 84.7589 141.768C84.5915 142.019 84.3752 142.234 84.1227 142.4C83.8703 142.566 83.5869 142.68 83.2893 142.735L83.2918 142.735ZM61.0835 147.363C57.3822 148.114 53.6816 148.854 49.9819 149.583C48.7008 149.835 47.4435 149.111 47.1579 147.973C46.8723 146.835 47.6769 145.696 48.9541 145.429C52.648 144.664 56.3425 143.89 60.0376 143.109C61.3124 142.838 62.5837 143.575 62.8691 144.753C63.1545 145.931 62.3576 147.102 61.081 147.363L61.0835 147.363ZM38.8886 151.754C35.1983 152.466 31.5045 153.168 27.8073 153.858C26.5295 154.099 25.2766 153.42 25.0038 152.349C24.731 151.279 25.5389 150.202 26.8103 149.947C30.5025 149.206 34.1899 148.465 37.8723 147.724C39.1489 147.464 40.4105 148.161 40.6895 149.286C40.9685 150.411 40.1616 151.51 38.8862 151.753L38.8886 151.754ZM16.7398 155.905C13.0522 156.576 9.36962 157.235 5.69202 157.881C4.42283 158.104 3.17814 157.488 2.91946 156.503C2.66077 155.517 3.4755 154.523 4.74108 154.279C8.41147 153.568 12.0855 152.853 15.7631 152.133C17.0342 151.882 18.2818 152.529 18.5534 153.579C18.8251 154.63 18.0122 155.671 16.7374 155.905L16.7398 155.905Z" fill="white"/>
<path d="M230.522 115.186L227.858 116.05C226.631 116.462 225.478 115.954 225.278 114.945C225.078 113.937 225.919 112.815 227.151 112.438L229.827 111.614C231.057 111.237 232.207 111.715 232.394 112.691C232.581 113.667 231.746 114.783 230.522 115.186ZM217.178 119.465C213.609 120.586 210.03 121.694 206.441 122.788C205.206 123.165 204.016 122.585 203.797 121.496C203.577 120.406 204.402 119.227 205.643 118.868C209.245 117.819 212.839 116.759 216.425 115.688C217.659 115.321 218.833 115.851 219.038 116.89C219.243 117.928 218.411 119.075 217.178 119.465ZM195.656 126.022C192.053 127.086 188.441 128.134 184.822 129.166C183.574 129.525 182.359 128.873 182.116 127.718C181.874 126.563 182.686 125.348 183.941 125.005C187.57 124.008 191.193 122.997 194.812 121.972C196.06 121.621 197.261 122.232 197.488 123.344C197.716 124.456 196.9 125.656 195.656 126.022ZM173.947 132.228C170.316 133.23 166.678 134.217 163.031 135.188C161.767 135.524 160.538 134.822 160.276 133.621C160.167 133.017 160.293 132.395 160.629 131.881C160.965 131.368 161.486 131.002 162.085 130.859C165.74 129.91 169.388 128.949 173.03 127.975C174.294 127.64 175.513 128.314 175.761 129.482C176.01 130.65 175.2 131.872 173.947 132.218L173.947 132.228ZM152.079 138.057C148.425 138.998 144.764 139.923 141.097 140.832C140.804 140.911 140.499 140.931 140.199 140.89C139.899 140.849 139.61 140.748 139.35 140.594C139.089 140.44 138.863 140.235 138.683 139.992C138.504 139.748 138.375 139.471 138.305 139.178C138.183 138.571 138.304 137.941 138.641 137.422C138.979 136.903 139.507 136.537 140.112 136.401C143.784 135.504 147.452 134.593 151.117 133.667C151.405 133.586 151.707 133.563 152.004 133.601C152.302 133.638 152.588 133.735 152.847 133.886C153.106 134.036 153.332 134.237 153.511 134.476C153.691 134.715 153.82 134.988 153.891 135.278C154.001 135.883 153.874 136.507 153.538 137.022C153.201 137.537 152.679 137.903 152.08 138.047L152.079 138.057ZM130.081 143.501C126.41 144.38 122.73 145.241 119.042 146.086C118.747 146.157 118.44 146.169 118.14 146.121C117.84 146.073 117.552 145.966 117.294 145.807C117.036 145.647 116.812 145.438 116.635 145.192C116.458 144.945 116.332 144.667 116.264 144.371C116.196 144.076 116.188 143.77 116.239 143.472C116.291 143.173 116.401 142.888 116.564 142.632C116.727 142.377 116.939 142.156 117.188 141.982C117.437 141.809 117.718 141.687 118.015 141.623C121.703 140.776 125.388 139.917 129.069 139.043C129.364 138.967 129.671 138.951 129.972 138.994C130.273 139.037 130.563 139.14 130.824 139.296C131.085 139.451 131.313 139.658 131.493 139.902C131.674 140.146 131.804 140.424 131.876 140.718C132.004 141.324 131.887 141.956 131.551 142.477C131.215 142.997 130.687 143.365 130.081 143.501ZM107.979 148.586C104.29 149.397 100.594 150.195 96.8904 150.977C96.2865 151.113 95.653 151.009 95.1245 150.688C94.5959 150.366 94.2139 149.851 94.0593 149.254C93.9915 148.956 93.9846 148.649 94.0391 148.349C94.0935 148.049 94.2082 147.763 94.3761 147.509C94.5441 147.255 94.7619 147.036 95.0165 146.868C95.2711 146.699 95.5572 146.584 95.8577 146.528C99.5534 145.737 103.25 144.931 106.948 144.11C107.55 143.967 108.185 144.067 108.714 144.389C109.243 144.71 109.623 145.226 109.772 145.826C109.84 146.125 109.848 146.434 109.794 146.736C109.74 147.038 109.626 147.326 109.459 147.583C109.292 147.84 109.075 148.061 108.821 148.234C108.567 148.406 108.28 148.526 107.979 148.586ZM85.8084 153.275C82.1155 154.026 78.413 154.758 74.701 155.472C73.4227 155.72 72.1486 154.951 71.8614 153.763C71.5742 152.575 72.3785 151.404 73.655 151.146C77.3605 150.407 81.0634 149.655 84.764 148.89C85.3676 148.755 86.0002 148.859 86.5288 149.179C87.0574 149.5 87.4407 150.012 87.5979 150.609C87.6625 150.902 87.6668 151.205 87.6106 151.5C87.5544 151.795 87.4388 152.076 87.2709 152.325C87.103 152.574 86.8862 152.786 86.6336 152.95C86.3809 153.113 86.0977 153.224 85.801 153.275L85.8084 153.275ZM63.5827 157.572C59.8746 158.254 56.1666 158.92 52.4589 159.57C51.1749 159.793 49.9119 159.044 49.6296 157.894C49.3473 156.743 50.1568 155.642 51.4145 155.405C55.1195 154.72 58.8246 154.023 62.5297 153.313C63.808 153.065 65.0782 153.819 65.3641 154.99C65.65 156.16 64.8561 157.324 63.5761 157.559L63.5827 157.572ZM41.3206 161.453C37.6135 162.069 33.906 162.668 30.1979 163.251C28.9154 163.451 27.6599 162.738 27.3844 161.67C27.109 160.601 27.9198 159.555 29.201 159.337C32.9023 158.708 36.6045 158.066 40.3075 157.412C41.5819 157.184 42.844 157.91 43.1306 159.034C43.4172 160.157 42.6061 161.246 41.3206 161.453ZM19.0798 164.945C15.3741 165.492 11.6704 166.022 7.96863 166.535C6.69023 166.711 5.4408 166.055 5.18212 165.07C4.92343 164.084 5.74307 163.127 7.01785 162.931C10.7106 162.356 14.4055 161.771 18.1027 161.178C19.3759 160.97 20.6386 161.649 20.9054 162.699C21.1721 163.75 20.3639 164.757 19.0847 164.945L19.0798 164.945Z" fill="white"/>
</g>
<defs>
<linearGradient id="paint0_linear_331_5227" x1="79.4261" y1="-112.409" x2="117.419" y2="149.391" gradientUnits="userSpaceOnUse">
<stop stop-color="#85E2FF"/>
<stop offset="1" stop-color="#6FD1FB"/>
</linearGradient>
<linearGradient id="paint1_linear_331_5227" x1="73.4158" y1="137.217" x2="218.54" y2="103.786" gradientUnits="userSpaceOnUse">
<stop stop-color="#85A0FF"/>
<stop offset="1" stop-color="#6F9FFB"/>
</linearGradient>
<linearGradient id="paint2_linear_331_5227" x1="-13.9096" y1="149.665" x2="237.423" y2="91.768" gradientUnits="userSpaceOnUse">
<stop stop-color="#191D44"/>
<stop offset="1" stop-color="#393C89"/>
</linearGradient>
</defs>
</svg>
