<svg width="30" height="30" viewBox="0 0 30 30" fill="none" xmlns="http://www.w3.org/2000/svg">
<path d="M18.0854 15.3069C17.3638 16.3423 16.9395 17.6002 16.9395 18.9579C16.9395 22.4894 19.8023 25.3521 23.3336 25.3521C26.865 25.3521 29.7278 22.4893 29.7278 18.9579C29.7278 15.4265 26.865 12.5637 23.3336 12.5637C21.8332 12.5637 20.4545 13.082 19.3637 13.9473L18.0854 15.3069Z" fill="#30027A"/>
<path d="M23.3333 25.5509C19.6979 25.5509 16.7402 22.5931 16.7402 18.9576C16.7402 17.6038 17.1488 16.3021 17.9219 15.193C17.9847 15.1025 18.1089 15.0804 18.1988 15.1435C18.2889 15.2064 18.3111 15.3302 18.2482 15.4204C17.5219 16.4624 17.1381 17.6855 17.1381 18.9576C17.1381 22.3737 19.9172 25.153 23.3333 25.153C26.7495 25.153 29.5287 22.3737 29.5287 18.9576C29.5287 15.5415 26.7495 12.7624 23.3333 12.7624C21.9224 12.7624 20.5924 13.2259 19.4872 14.1027C19.4008 14.1712 19.2759 14.1564 19.2077 14.0706C19.1393 13.9846 19.1539 13.8594 19.2398 13.7912C20.4161 12.8578 21.8317 12.3645 23.3333 12.3645C26.9688 12.3645 29.9266 15.3222 29.9266 18.9576C29.9266 22.5931 26.9688 25.5509 23.3333 25.5509Z" fill="#3A312A"/>
<path d="M24.0048 14.28L24.9348 16.1642C25.0439 16.3853 25.2549 16.5386 25.4989 16.574L27.5784 16.8761C28.1929 16.9653 28.4383 17.7205 27.9936 18.154L26.4889 19.6206C26.3124 19.7928 26.2318 20.0408 26.2734 20.2837L26.6286 22.3547C26.7335 22.9667 26.0912 23.4334 25.5415 23.1444L23.6816 22.1666C23.4634 22.0519 23.2026 22.0519 22.9843 22.1666L21.1245 23.1444C20.5749 23.4334 19.9325 22.9667 20.0374 22.3547L20.3926 20.2837C20.4342 20.0406 20.3537 19.7928 20.1771 19.6206L18.6724 18.154C18.2277 17.7206 18.4731 16.9653 19.0876 16.8761L21.1671 16.574C21.4111 16.5386 21.622 16.3853 21.7311 16.1642L22.661 14.28C22.9361 13.7231 23.7301 13.7231 24.0048 14.28Z" fill="white"/>
<path d="M25.8914 23.4305C25.7407 23.4305 25.5893 23.3943 25.4492 23.3207L23.5893 22.3429C23.4289 22.2584 23.2376 22.2584 23.0772 22.3429L21.2174 23.3207C20.8957 23.4897 20.5131 23.4622 20.219 23.2486C19.925 23.0349 19.7803 22.6795 19.8417 22.3213L20.197 20.2502C20.2277 20.0717 20.1685 19.8897 20.0388 19.7632L18.5341 18.2965C18.2738 18.0426 18.1819 17.6702 18.2941 17.3245C18.4066 16.9789 18.6998 16.7316 19.0594 16.6793L21.1389 16.3772C21.3182 16.3512 21.4731 16.2386 21.5531 16.0764L22.4832 14.1921C22.6441 13.8661 22.9698 13.6636 23.3335 13.6636C23.697 13.6636 24.0227 13.8661 24.1835 14.1921L25.1135 16.0763C25.1936 16.2388 25.3485 16.3512 25.5278 16.3773L27.6072 16.6794C27.967 16.7318 28.2602 16.979 28.3725 17.3246C28.4849 17.6704 28.3928 18.0428 28.1326 18.2966L26.628 19.7633C26.4983 19.8897 26.4391 20.0718 26.4697 20.2505L26.825 22.3213C26.8866 22.6796 26.742 23.0349 26.4479 23.2486C26.2817 23.3692 26.0873 23.4305 25.8914 23.4305ZM23.3333 21.8818C23.4849 21.8818 23.6364 21.9181 23.7745 21.9907L25.6344 22.9685C25.8243 23.0683 26.0407 23.0527 26.2139 22.9267C26.3871 22.8008 26.4689 22.5997 26.4326 22.3885L26.0773 20.3176C26.0248 20.0099 26.1267 19.6961 26.3501 19.4784L27.8548 18.0117C28.0081 17.8623 28.0602 17.6513 27.9941 17.4477C27.9279 17.244 27.7618 17.104 27.5498 17.0732L25.4703 16.7711C25.1615 16.7261 24.8945 16.5322 24.7564 16.2524L23.8267 14.3683C23.7318 14.1763 23.5472 14.0616 23.3332 14.0616C23.119 14.0616 22.9344 14.1763 22.8396 14.3683L21.9095 16.2525C21.7716 16.5322 21.5046 16.7261 21.1958 16.7711L19.1163 17.0732C18.9043 17.104 18.7382 17.244 18.6721 17.4477C18.6059 17.6513 18.658 17.8623 18.8113 18.0117L20.316 19.4784C20.5396 19.6964 20.6414 20.01 20.5888 20.3176L20.2335 22.3885C20.1973 22.5997 20.2793 22.8007 20.4525 22.9267C20.6259 23.0527 20.8425 23.0683 21.0317 22.9685L22.8916 21.9907C23.0303 21.9181 23.1819 21.8818 23.3333 21.8818Z" fill="#3A312A"/>
<path d="M27.9733 1.4939C27.9733 1.4939 28.4255 3.17271 29.7277 3.25056C29.7277 3.25056 27.9894 3.85065 27.9601 5.134C27.9601 5.134 27.618 3.33411 26.2451 3.26952C26.2451 3.26952 27.8441 3.02749 27.9733 1.4939Z" fill="white"/>
<path d="M27.9598 5.33271C27.8653 5.33271 27.7828 5.26561 27.7645 5.17132C27.7615 5.15487 27.4336 3.52446 26.2355 3.4681C26.1333 3.46333 26.0515 3.3819 26.0462 3.27965C26.0409 3.17753 26.1139 3.08815 26.215 3.07263C26.2735 3.06361 27.6607 2.83167 27.7748 1.47697C27.7831 1.38069 27.8591 1.30443 27.9551 1.29568C28.0522 1.28733 28.1398 1.3486 28.1651 1.44183C28.1693 1.45721 28.5975 2.98365 29.7393 3.05194C29.834 3.05751 29.9115 3.12926 29.9245 3.22329C29.9375 3.31718 29.8823 3.40736 29.7926 3.43839C29.7766 3.4441 28.1845 4.01024 28.1589 5.13843C28.1565 5.24014 28.078 5.32356 27.9766 5.33205C27.971 5.33258 27.9654 5.33271 27.9598 5.33271ZM26.9326 3.24676C27.4473 3.50802 27.7593 4.00892 27.9394 4.42415C28.2082 3.89089 28.7277 3.52393 29.1269 3.30644C28.5781 3.06202 28.2268 2.55688 28.021 2.14948C27.7831 2.72769 27.3214 3.06056 26.9326 3.24676Z" fill="#3A312A"/>
<path d="M25.0934 3.74561C25.0934 3.74561 25.4133 4.93307 26.3343 4.98811C26.3343 4.98811 25.1048 5.41262 25.0842 6.32026C25.0842 6.32026 24.8421 5.04712 23.8711 5.0015C23.8711 5.0015 25.0021 4.83029 25.0934 3.74561Z" fill="white"/>
<path d="M25.0839 6.51928C24.9892 6.51928 24.9066 6.45204 24.8885 6.35748C24.8864 6.34661 24.6624 5.23805 23.8615 5.20025C23.7594 5.19548 23.6775 5.11405 23.6721 5.0118C23.6668 4.90969 23.7399 4.8203 23.841 4.80479C23.8802 4.79855 24.8181 4.63994 24.8948 3.72886C24.903 3.63258 24.9791 3.55605 25.0752 3.54743C25.1703 3.53881 25.26 3.60035 25.2849 3.69358C25.288 3.70406 25.5807 4.74392 26.3459 4.78967C26.4406 4.79524 26.5181 4.86712 26.531 4.96114C26.5439 5.05517 26.4886 5.14535 26.3988 5.17625C26.3882 5.17996 25.2999 5.56787 25.2827 6.32486C25.2803 6.42671 25.2016 6.51026 25.1002 6.51861C25.0949 6.51901 25.0893 6.51928 25.0839 6.51928ZM24.4843 4.99045C24.7639 5.16723 24.9518 5.44082 25.0743 5.69081C25.2569 5.39481 25.5409 5.17718 25.7862 5.03117C25.4827 4.86274 25.2706 4.58676 25.1304 4.33824C24.9747 4.6418 24.7304 4.8524 24.4843 4.99045Z" fill="#3A312A"/>
<path d="M25.0934 0.210449C25.0934 0.210449 25.4133 1.39791 26.3343 1.45308C26.3343 1.45308 25.1048 1.87759 25.0842 2.78523C25.0842 2.78523 24.8421 1.5121 23.8711 1.46648C23.8711 1.46648 25.0021 1.29513 25.0934 0.210449Z" fill="white"/>
<path d="M25.0839 2.98408C24.9892 2.98408 24.9066 2.91684 24.8885 2.82228C24.8864 2.81141 24.6624 1.70272 23.8615 1.66492C23.7594 1.66015 23.6775 1.57872 23.6721 1.47647C23.6668 1.37449 23.7399 1.28497 23.841 1.26959C23.8802 1.26335 24.8181 1.10488 24.8948 0.193656C24.903 0.0973756 24.9791 0.0208551 25.0752 0.0122349C25.1703 0.00387995 25.26 0.0651496 25.2849 0.15838C25.288 0.168857 25.5807 1.20872 26.3459 1.2546C26.4406 1.2603 26.5181 1.33205 26.531 1.42608C26.5439 1.5201 26.4886 1.61028 26.3988 1.64118C26.3882 1.6449 25.2999 2.03281 25.2827 2.78979C25.2803 2.89164 25.2016 2.97506 25.1002 2.98355C25.0949 2.98381 25.0893 2.98408 25.0839 2.98408ZM24.4842 1.45525C24.7639 1.63203 24.9518 1.90562 25.0743 2.15561C25.2569 1.85947 25.5409 1.64198 25.7862 1.49597C25.4827 1.32754 25.2707 1.05143 25.1305 0.802904C24.9747 1.10633 24.7304 1.3172 24.4842 1.45525Z" fill="#3A312A"/>
<path d="M23.3331 12.7634C22.9008 12.7634 22.4804 12.8072 22.0732 12.8921C24.0718 13.3072 25.7202 14.6864 26.508 16.5205L27.6061 16.6796C27.9655 16.7314 28.2599 16.9794 28.3713 17.3242C28.484 17.6703 28.3925 18.043 28.1312 18.2963L26.9907 19.4076C26.9483 20.0057 26.821 20.5799 26.6181 21.1197L26.8236 22.3212C26.886 22.6793 26.7414 23.0347 26.447 23.2482C26.2812 23.3689 26.0863 23.4312 25.89 23.4312C25.7401 23.4312 25.5889 23.3941 25.4484 23.3212L25.2892 23.2376C24.4378 24.1275 23.3238 24.7654 22.0732 25.0253C22.4804 25.1102 22.9008 25.1539 23.3331 25.1539C26.748 25.1539 29.5277 22.3743 29.5277 18.958C29.5277 15.5418 26.748 12.7634 23.3331 12.7634Z" fill="#0469A2"/>
<path d="M17.9252 29.8002V26.1758C17.9252 23.9667 16.1348 22.1761 13.9257 22.1761H11.2832V20.4587C10.5523 20.9655 9.796 21.2644 9.06222 21.2644C8.35829 21.2644 7.61549 20.9624 6.88755 20.4497H6.84273V22.1761H4.19872C1.9897 22.1761 0.199219 23.9667 0.199219 26.1758V29.8002H17.9252Z" fill="#F7E3C7"/>
<path d="M17.9251 29.999H0.198927C0.0891194 29.999 0 29.9098 0 29.8V26.1756C0 23.8606 1.88344 21.9772 4.19856 21.9772H6.64364V20.4497C6.64364 20.3399 6.73276 20.2507 6.84257 20.2507H6.88739C6.9285 20.2507 6.96842 20.2635 7.00184 20.2869C7.73522 20.8036 8.42842 21.0654 9.06207 21.0654C9.72317 21.0654 10.4323 20.8063 11.1698 20.2952C11.2306 20.2529 11.3098 20.2482 11.3753 20.2823C11.441 20.3166 11.4821 20.3845 11.4821 20.4585V21.9769H13.9257C16.2407 21.9769 18.1241 23.8603 18.1241 26.1753V29.7998C18.124 29.9098 18.0349 29.999 17.9251 29.999ZM0.397855 29.6011H17.7261V26.1756C17.7261 24.0799 16.0211 22.375 13.9256 22.375H11.283C11.1732 22.375 11.0841 22.2859 11.0841 22.1761V20.8255C10.3881 21.2489 9.70937 21.4634 9.06207 21.4634C8.42523 21.4634 7.74676 21.2378 7.04149 20.7919V22.1762C7.04149 22.286 6.95238 22.3751 6.84257 22.3751H4.19856C2.10279 22.3751 0.397855 24.0801 0.397855 26.1757V29.6011Z" fill="#3A312A"/>
<path d="M17.9255 29.8007V26.1741C17.9255 23.966 16.1355 22.1743 13.9257 22.1743H13.2937L13.3097 22.1872L10.5612 25.8315L9.14272 24.7637L7.72424 25.8315L4.97573 22.1872L4.99177 22.1743H4.19898C1.9893 22.1743 0.199219 23.9659 0.199219 26.1741V29.8007H17.9255Z" fill="white"/>
<path d="M17.9249 29.9996H0.198927C0.0891195 29.9996 0 29.9105 0 29.8007V26.1743C0 23.8592 1.88344 21.9756 4.19856 21.9756H4.99148C5.07609 21.9756 5.15129 22.0289 5.17927 22.1087C5.18245 22.1182 5.18511 22.1278 5.18696 22.1374L7.76307 25.5534L9.02281 24.605C9.09376 24.5517 9.19124 24.5517 9.26219 24.605L10.5219 25.5534L13.098 22.1375C13.0999 22.1278 13.1024 22.1183 13.1057 22.1087C13.1337 22.0289 13.2089 21.9756 13.2935 21.9756H13.9256C16.2407 21.9756 18.1241 23.8592 18.1241 26.1743V29.8009C18.1239 29.9107 18.0347 29.9996 17.9249 29.9996ZM0.397855 29.6018H17.726V26.1743C17.726 24.0784 16.0209 22.3734 13.9253 22.3734H13.4182L10.7197 25.9515C10.6535 26.0393 10.529 26.0565 10.4412 25.9906L9.1423 25.0128L7.84344 25.9906C7.75564 26.0564 7.63098 26.0391 7.56494 25.9515L4.86656 22.3734H4.19856C2.10279 22.3734 0.397855 24.0785 0.397855 26.1743V29.6018Z" fill="#3A312A"/>
<path d="M7.68286 29.8011L4.97599 22.1873L4.99191 22.1741H4.19845C1.98917 22.1741 0.199219 23.9653 0.199219 26.1746V29.8011H7.68286Z" fill="#87796F"/>
<path d="M7.68257 30H0.198927C0.0891195 30 0 29.9108 0 29.801V26.1746C0 23.8589 1.88331 21.9751 4.19816 21.9751H4.99148C5.07516 21.9751 5.14983 22.0275 5.17847 22.1061C5.18895 22.135 5.19227 22.1651 5.18935 22.1944L7.86983 29.7343C7.89144 29.7953 7.88229 29.863 7.84489 29.9157C7.80776 29.9685 7.74716 30 7.68257 30ZM0.397855 29.6021H7.40076L4.83075 22.373H4.19816C2.10266 22.373 0.397855 24.0783 0.397855 26.1746V29.6021Z" fill="#3A312A"/>
<path d="M11.5783 27.0593L10.6035 29.8011H17.9252V26.1746C17.9252 23.9653 16.1353 22.1741 13.926 22.1741H13.2931L13.3104 22.1873L12.1573 25.4308L11.5783 27.0593Z" fill="#87796F"/>
<path d="M17.925 30.0001H10.6033C10.5387 30.0001 10.4781 29.9687 10.4407 29.9159C10.4034 29.8631 10.3941 29.7955 10.4158 29.7345L11.3905 26.9927C11.4271 26.8893 11.5405 26.8349 11.6446 26.872C11.748 26.9088 11.8022 27.0225 11.7653 27.1261L10.885 29.6022H17.7259V26.1747C17.7259 24.0784 16.0211 22.3731 13.9256 22.3731H13.455L12.3443 25.4974C12.3076 25.601 12.1935 25.6551 12.0903 25.6183C11.9868 25.5815 11.9328 25.4677 11.9695 25.3643L13.0952 22.1975C13.0917 22.1687 13.0945 22.1389 13.1042 22.1101C13.1317 22.0295 13.2074 21.9751 13.2927 21.9751H13.9256C16.2405 21.9751 18.1238 23.8589 18.1238 26.1746V29.801C18.1239 29.911 18.0348 30.0001 17.925 30.0001Z" fill="#3A312A"/>
<path d="M2.1939 13.8351C3.06307 13.8351 3.76768 13.1305 3.76768 12.2613C3.76768 11.3921 3.06307 10.6875 2.1939 10.6875C1.32472 10.6875 0.620117 11.3921 0.620117 12.2613C0.620117 13.1305 1.32472 13.8351 2.1939 13.8351Z" fill="#F7E3C7"/>
<path d="M2.19458 14.0341C1.21705 14.0341 0.421875 13.2389 0.421875 12.2613C0.421875 11.2839 1.21705 10.4888 2.19458 10.4888C3.17198 10.4888 3.96716 11.2839 3.96716 12.2613C3.96716 13.2389 3.17198 14.0341 2.19458 14.0341ZM2.19458 10.8865C1.4364 10.8865 0.81973 11.5032 0.81973 12.2612C0.81973 13.0194 1.4364 13.6361 2.19458 13.6361C2.95263 13.6361 3.5693 13.0194 3.5693 12.2612C3.5693 11.5033 2.95263 10.8865 2.19458 10.8865Z" fill="#3A312A"/>
<path d="M15.9302 13.8351C16.7994 13.8351 17.504 13.1305 17.504 12.2613C17.504 11.3921 16.7994 10.6875 15.9302 10.6875C15.0611 10.6875 14.3564 11.3921 14.3564 12.2613C14.3564 13.1305 15.0611 13.8351 15.9302 13.8351Z" fill="#F7E3C7"/>
<path d="M15.9309 14.0341C14.9534 14.0341 14.1582 13.2389 14.1582 12.2613C14.1582 11.2839 14.9534 10.4888 15.9309 10.4888C16.9083 10.4888 17.7035 11.2839 17.7035 12.2613C17.7035 13.2389 16.9083 14.0341 15.9309 14.0341ZM15.9309 10.8865C15.1727 10.8865 14.5561 11.5032 14.5561 12.2612C14.5561 13.0194 15.1727 13.6361 15.9309 13.6361C16.689 13.6361 17.3056 13.0194 17.3056 12.2612C17.3056 11.5033 16.689 10.8865 15.9309 10.8865Z" fill="#3A312A"/>
<path d="M16.1067 10.8782C16.0749 10.8901 16.0338 10.9034 16.0152 10.9286C15.8692 9.1214 15.0346 7.50784 13.7715 6.35353C13.5193 6.12264 13.3044 5.85992 13.1318 5.57334C13.9624 5.06647 14.4666 4.39768 14.4666 3.66523C14.4666 3.44893 14.4269 3.22997 14.3513 3.01367C15.5972 4.25564 16.3628 5.93949 16.3628 7.79443C16.3628 8.03327 16.4053 10.7694 16.1067 10.8782Z" fill="#87796F"/>
<path d="M16.0159 11.1278C15.9976 11.1278 15.9793 11.1252 15.9611 11.1201C15.8814 11.0971 15.8242 11.0274 15.8176 10.9449C15.6797 9.23743 14.9056 7.65914 13.6379 6.50059C13.3719 6.25683 13.1446 5.97953 12.9621 5.6761C12.9057 5.58234 12.9356 5.46073 13.0289 5.4037C13.8282 4.9158 14.2685 4.29846 14.2685 3.66547C14.2685 3.47477 14.2334 3.27757 14.1641 3.07957C14.1336 2.99204 14.1674 2.89483 14.246 2.8455C14.3247 2.7959 14.4268 2.80783 14.4922 2.87295C15.8272 4.20351 16.5623 5.95141 16.5623 7.79467L16.5628 7.87928C16.5847 10.9137 16.3486 11.0022 16.1758 11.065C16.1733 11.066 16.1676 11.0681 16.1673 11.0681C16.1623 11.0699 16.157 11.0717 16.1517 11.0738C16.1151 11.1087 16.0661 11.1278 16.0159 11.1278ZM13.4077 5.63366C13.5501 5.84134 13.7175 6.03377 13.9067 6.20697C15.0488 7.25081 15.8126 8.61664 16.1047 10.115C16.1429 9.70332 16.1734 9.01887 16.1652 7.8822L16.1647 7.79481C16.1647 6.28004 15.6369 4.83278 14.6665 3.65473C14.6665 3.65818 14.6665 3.66189 14.6665 3.66547C14.6665 4.39302 14.2212 5.08621 13.4077 5.63366Z" fill="#3A312A"/>
<path d="M3.51924 29.9995C3.40943 29.9995 3.32031 29.9104 3.32031 29.8006V26.9357C3.32031 26.8259 3.40943 26.7368 3.51924 26.7368C3.62905 26.7368 3.71817 26.8259 3.71817 26.9357V29.8006C3.71817 29.9104 3.62905 29.9995 3.51924 29.9995Z" fill="#3A312A"/>
<path d="M14.7663 29.9995C14.6565 29.9995 14.5674 29.9104 14.5674 29.8006V26.9357C14.5674 26.8259 14.6565 26.7368 14.7663 26.7368C14.8761 26.7368 14.9652 26.8259 14.9652 26.9357V29.8006C14.9652 29.9104 14.8761 29.9995 14.7663 29.9995Z" fill="#3A312A"/>
<path d="M10.2346 29.8006H8.0459L8.45914 27.1213H9.82139L10.2346 29.8006Z" fill="#8AC3DA"/>
<path d="M10.2345 29.9996H8.04564C7.98756 29.9996 7.93239 29.9743 7.89459 29.9303C7.85679 29.8862 7.84022 29.8279 7.84897 29.7705L8.26221 27.0912C8.27706 26.9942 8.36061 26.9226 8.45875 26.9226H9.82087C9.91901 26.9226 10.0024 26.9942 10.0174 27.0912L10.4308 29.7705C10.4395 29.8279 10.423 29.8862 10.3852 29.9303C10.3476 29.9743 10.2925 29.9996 10.2345 29.9996ZM8.27759 29.6018H10.0026L9.65059 27.3203H8.62956L8.27759 29.6018Z" fill="#3A312A"/>
<path d="M10.2912 24.7617L9.81992 27.1209H8.46045L8 24.7617H10.2912Z" fill="#8AC3DA"/>
<path d="M9.81981 27.3199H8.46034C8.36512 27.3199 8.2833 27.2525 8.265 27.159L7.80441 24.7997C7.79314 24.7415 7.80839 24.681 7.84606 24.6352C7.88385 24.5893 7.94022 24.5627 7.99963 24.5627H10.2913C10.3508 24.5627 10.4073 24.5894 10.4451 24.6356C10.4829 24.6817 10.4979 24.7423 10.4862 24.8007L10.0148 27.1599C9.99633 27.2529 9.91464 27.3199 9.81981 27.3199ZM8.62413 26.922H9.65669L10.0486 24.9606H8.24126L8.62413 26.922Z" fill="#3A312A"/>
<path d="M6.4018 21.1126L4.97754 22.186L7.72544 25.8319L9.1497 24.7585L6.4018 21.1126Z" fill="white"/>
<path d="M7.72506 26.0313C7.71591 26.0313 7.70663 26.0307 7.69734 26.0293C7.64509 26.0219 7.59801 25.9942 7.56618 25.952L4.81833 22.3061C4.75229 22.2184 4.7698 22.0936 4.85759 22.0274L6.28191 20.9539C6.32382 20.9222 6.3762 20.9083 6.42925 20.9158C6.4815 20.9233 6.52858 20.951 6.56041 20.9932L9.30812 24.6391C9.37417 24.7268 9.35666 24.8515 9.269 24.9177L7.84481 25.9913C7.8102 26.0174 7.76803 26.0313 7.72506 26.0313ZM5.25584 22.2254L7.76418 25.5538L8.87075 24.7197L6.36254 21.3914L5.25584 22.2254Z" fill="#3A312A"/>
<path d="M9.13824 24.7583L10.5625 25.8318L13.3104 22.1859L11.8861 21.1124L9.13824 24.7583Z" fill="white"/>
<path d="M10.5616 26.0314C10.5186 26.0314 10.4764 26.0176 10.4418 25.9913L9.01762 24.9178C8.92996 24.8516 8.91246 24.7269 8.9785 24.6391L11.7262 20.9932C11.758 20.951 11.8053 20.9233 11.8574 20.9159C11.91 20.9082 11.9627 20.9222 12.0047 20.9539L13.429 22.0275C13.5168 22.0937 13.5343 22.2183 13.4683 22.3061L10.7204 25.9521C10.6886 25.9942 10.6414 26.0219 10.5893 26.0294C10.5799 26.0307 10.5707 26.0314 10.5616 26.0314ZM9.41587 24.7198L10.5224 25.5538L13.0308 22.2255L11.9241 21.3915L9.41587 24.7198Z" fill="#3A312A"/>
<path d="M16.0382 11.4977C16.0382 15.3497 12.3282 21.2649 9.06271 21.2649C5.94446 21.2649 2.08594 15.3496 2.08594 11.4977C2.08594 11.2934 2.09522 11.0916 2.11114 10.8927C2.11379 10.8635 2.11644 10.8344 2.12042 10.8052C2.14562 10.5968 2.19999 10.3726 2.27837 10.139C3.08376 7.70948 5.52128 6.19286 8.06357 6.4821C8.41779 6.52321 8.78408 6.54443 9.15953 6.54443C10.7413 6.54443 12.1609 6.16899 13.1322 5.57446C13.3048 5.85972 13.5197 6.12244 13.7719 6.352C15.165 7.62726 16.0382 9.45965 16.0382 11.4977Z" fill="#F7E3C7"/>
<path d="M9.06242 21.4642C7.56835 21.4642 5.76607 20.1465 4.24109 17.9392C2.78892 15.8373 1.88672 13.3692 1.88672 11.4981C1.88672 11.298 1.89507 11.0948 1.91258 10.877C1.91563 10.8432 1.91855 10.8112 1.92279 10.7792C1.94865 10.5655 2.00488 10.3281 2.08949 10.076C2.91743 7.57815 5.43982 5.98368 8.08582 6.28472C8.4354 6.32531 8.79639 6.34573 9.15937 6.34573C10.6414 6.34573 12.0515 6.00291 13.0282 5.40507C13.0736 5.37748 13.1281 5.36873 13.1793 5.38146C13.2307 5.39406 13.275 5.42655 13.3025 5.47191C13.4663 5.74324 13.6693 5.98991 13.9056 6.20529C15.3874 7.56131 16.2369 9.49037 16.2369 11.4979C16.2369 13.3903 15.3565 15.8579 13.9393 17.9381C12.4122 20.179 10.6347 21.4642 9.06242 21.4642ZM7.44408 6.64611C5.20986 6.64611 3.17378 8.0695 2.46692 10.2019C2.39067 10.4292 2.34054 10.6402 2.3176 10.8294C2.31388 10.8579 2.31136 10.8842 2.30911 10.9104C2.29266 11.1159 2.28457 11.3086 2.28457 11.4981C2.28457 13.2927 3.15972 15.6741 4.56839 17.7131C6.0191 19.8128 7.69911 21.0663 9.06256 21.0663C10.4801 21.0663 12.1803 19.8132 13.6104 17.7142C14.985 15.6965 15.8391 13.3147 15.8391 11.4981C15.8391 9.60177 15.0366 7.77973 13.6374 6.49917C13.4217 6.30276 13.2306 6.08248 13.0678 5.84297C12.0413 6.41694 10.6305 6.74372 9.15937 6.74372C8.78114 6.74372 8.40464 6.72236 8.04033 6.68019C7.84061 6.65725 7.64142 6.64611 7.44408 6.64611Z" fill="#3A312A"/>
<path d="M7.27996 11.4185C7.27996 11.7946 6.97507 12.0995 6.59896 12.0995C6.22286 12.0995 5.91797 11.7946 5.91797 11.4185C5.91797 11.0424 6.22286 10.7375 6.59896 10.7375C6.97507 10.7375 7.27996 11.0424 7.27996 11.4185Z" fill="#3A312A"/>
<path d="M12.2067 11.4185C12.2067 11.7946 11.9018 12.0995 11.5257 12.0995C11.1496 12.0995 10.8447 11.7946 10.8447 11.4185C10.8447 11.0424 11.1496 10.7375 11.5257 10.7375C11.9018 10.7375 12.2067 11.0424 12.2067 11.4185Z" fill="#3A312A"/>
<path d="M6.41145 13.4433C6.41145 13.9276 5.88628 14.3201 5.23844 14.3201C4.5906 14.3201 4.06543 13.9276 4.06543 13.4433C4.06543 12.959 4.5906 12.5664 5.23844 12.5664C5.88614 12.5664 6.41145 12.959 6.41145 13.4433Z" fill="#F59689"/>
<path d="M14.0589 13.4433C14.0589 13.9276 13.5337 14.3201 12.8859 14.3201C12.2381 14.3201 11.7129 13.9276 11.7129 13.4433C11.7129 12.959 12.2381 12.5664 12.8859 12.5664C13.5337 12.5664 14.0589 12.959 14.0589 13.4433Z" fill="#F59689"/>
<path d="M9.06227 17.3553C8.07877 17.3553 7.3698 16.9134 6.95484 16.0419C6.90776 15.9427 6.9498 15.8241 7.04899 15.7768C7.14819 15.7298 7.26689 15.7718 7.3141 15.871C7.66209 16.6021 8.23407 16.9574 9.06227 16.9574C10.1224 16.9574 10.665 16.2571 10.8038 15.8867C10.8423 15.7837 10.9566 15.7312 11.0599 15.7702C11.1627 15.8087 11.2149 15.9234 11.1763 16.0263C10.9364 16.6662 10.1725 17.3553 9.06227 17.3553Z" fill="#3A312A"/>
<path d="M6.01668 14.0868C4.52672 14.0868 3.31445 12.8746 3.31445 11.3846C3.31445 9.89464 4.52672 8.68237 6.01668 8.68237C7.50651 8.68237 8.71878 9.89464 8.71878 11.3846C8.71878 12.8747 7.50651 14.0868 6.01668 14.0868ZM6.01668 9.08023C4.74607 9.08023 3.71231 10.114 3.71231 11.3846C3.71231 12.6552 4.74607 13.689 6.01668 13.689C7.2873 13.689 8.32092 12.6552 8.32092 11.3846C8.32092 10.114 7.2873 9.08023 6.01668 9.08023Z" fill="#3A312A"/>
<path d="M12.2686 14.0868C10.7787 14.0868 9.56641 12.8746 9.56641 11.3846C9.56641 9.89464 10.7787 8.68237 12.2686 8.68237C13.7586 8.68237 14.9709 9.89464 14.9709 11.3846C14.9709 12.8747 13.7586 14.0868 12.2686 14.0868ZM12.2686 9.08023C10.998 9.08023 9.96426 10.114 9.96426 11.3846C9.96426 12.6552 10.998 13.689 12.2686 13.689C13.5392 13.689 14.573 12.6552 14.573 11.3846C14.573 10.114 13.5392 9.08023 12.2686 9.08023Z" fill="#3A312A"/>
<path d="M9.76497 11.5785H8.52022C8.41041 11.5785 8.32129 11.4894 8.32129 11.3796C8.32129 11.2698 8.41041 11.1807 8.52022 11.1807H9.76497C9.87478 11.1807 9.9639 11.2698 9.9639 11.3796C9.9639 11.4894 9.87478 11.5785 9.76497 11.5785Z" fill="#3A312A"/>
<path d="M3.58055 11.0215C3.57378 11.0215 3.56715 11.0213 3.56039 11.0205L2.11551 10.8747C2.00624 10.8637 1.92653 10.7662 1.93754 10.6568C1.94855 10.5474 2.04721 10.4661 2.15543 10.4789L3.60031 10.6246C3.70958 10.6356 3.78929 10.7331 3.77828 10.8424C3.7678 10.9451 3.68147 11.0215 3.58055 11.0215Z" fill="#3A312A"/>
<path d="M14.7065 11.0214C14.6071 11.0214 14.5213 10.947 14.5093 10.8461C14.4961 10.737 14.5741 10.638 14.6833 10.6251L15.9681 10.4721C16.0776 10.459 16.1761 10.5371 16.1891 10.6461C16.2023 10.7553 16.1243 10.8542 16.0153 10.8672L14.7305 11.0201C14.7224 11.021 14.7144 11.0214 14.7065 11.0214Z" fill="#3A312A"/>
<path d="M9.72287 0.211954C7.36333 0.0644827 5.27566 1.15553 4.25489 2.14181C2.71414 3.40765 1.92188 5.69969 1.92188 7.79427C1.92188 8.177 1.98938 10.3546 2.11165 10.8934C2.13154 10.6608 2.19069 10.4066 2.27928 10.1391C3.08414 7.71019 5.52219 6.1929 8.06448 6.48267C8.41791 6.52299 8.78447 6.54421 9.16004 6.54421C12.0912 6.54421 14.4673 5.25542 14.4673 3.66573C14.4673 2.07604 12.2962 0.37282 9.72287 0.211954Z" fill="#87796F"/>
<path d="M2.11123 11.0922C2.01906 11.0922 1.93803 11.0284 1.91734 10.9373C1.78804 10.3668 1.72266 8.18006 1.72266 7.79428C1.72266 5.4354 2.6421 3.21338 4.12225 1.99316C5.25481 0.902906 7.42776 -0.130322 9.73518 0.013436C12.3158 0.174832 14.6661 1.91558 14.6661 3.66561C14.6661 5.39124 12.2475 6.74301 9.15988 6.74301C8.78245 6.74301 8.40622 6.72193 8.04165 6.68015C5.58065 6.39927 3.23689 7.88074 2.46784 10.2016C2.38044 10.4653 2.32713 10.7038 2.30949 10.9103C2.30127 11.008 2.22289 11.0849 2.12489 11.0917C2.12038 11.0921 2.11574 11.0922 2.11123 11.0922ZM9.29648 0.397763C7.26291 0.397763 5.39339 1.3184 4.39292 2.28492C4.38921 2.2885 4.3851 2.29221 4.38099 2.29553C3.00786 3.42371 2.12051 5.58207 2.12051 7.79428C2.12051 8.0745 2.14849 9.00322 2.19716 9.78222C3.11939 7.45385 5.54471 5.99518 8.08674 6.28495C8.43658 6.325 8.79744 6.34516 9.15988 6.34516C11.9766 6.34516 14.2682 5.14311 14.2682 3.66561C14.2682 2.26357 12.319 0.573615 9.71038 0.410495C9.5718 0.401875 9.43374 0.397763 9.29648 0.397763Z" fill="#3A312A"/>
</svg>
