<svg width="336" height="411" viewBox="0 0 336 411" fill="none" xmlns="http://www.w3.org/2000/svg">
<g clip-path="url(#clip0_226_3505)">
<path d="M20.5063 363.285C16.3101 362.734 15.5379 362.405 11.4619 367.082C7.386 371.759 5.60119 374.5 3.31005 376.475C1.01891 378.449 -0.620316 380.05 0.234112 381.297C1.08854 382.544 14.4873 396.601 21.1202 400.437C27.7531 404.272 37.7467 408.544 42.2847 409.595C46.8227 410.645 55.2847 409.715 56.6645 408.531C58.0442 407.348 56.8607 402.411 55.6645 400.664C54.4683 398.918 46.5885 398.557 44.905 397.652C43.2214 396.747 37.6328 386.449 35.0316 379.93C32.4303 373.411 20.5063 363.285 20.5063 363.285Z" fill="#F9F9F9"/>
<path style="mix-blend-mode:multiply" d="M20.5063 363.285C16.3101 362.734 15.5379 362.405 11.4619 367.082C7.386 371.759 5.60119 374.5 3.31005 376.475C1.01891 378.449 -0.620316 380.05 0.234112 381.297C1.08854 382.544 14.4873 396.601 21.1202 400.437C27.7531 404.272 37.7467 408.544 42.2847 409.595C46.8227 410.645 55.2847 409.715 56.6645 408.531C58.0442 407.348 56.8607 402.411 55.6645 400.664C54.4683 398.918 46.5885 398.557 44.905 397.652C43.2214 396.747 37.6328 386.449 35.0316 379.93C32.4303 373.411 20.5063 363.285 20.5063 363.285Z" fill="url(#paint0_linear_226_3505)"/>
<path d="M27.3161 398.354C23.3679 395.839 19.9424 392.586 17.2275 388.772C13.575 383.766 9.31208 379.235 4.5376 375.285C4.13253 375.709 3.7338 376.126 3.30975 376.494C1.01861 378.462 -0.620617 380.069 0.23381 381.316C1.08824 382.563 14.487 396.62 21.1199 400.456C27.7528 404.291 37.7464 408.563 42.2844 409.614C46.8224 410.664 55.2844 409.734 56.6642 408.55C57.2654 408.031 57.3604 406.791 57.1958 405.418C46.835 405.424 36.3287 404.025 27.3161 398.354Z" fill="#AAABAC"/>
<path d="M160 373.551C157.469 373.367 155.038 375.449 153.462 380.975C151.886 386.5 151.203 392.696 150.298 395.177C149.393 397.658 153 401.506 157.171 403.171C161.342 404.835 169.69 403.601 175.102 406.082C180.513 408.563 198.95 411.323 205.943 408.563C212.937 405.804 215.867 404.133 216.545 401.671C217.222 399.209 212.532 396.747 208.772 395.861C202.88 394.462 191.114 387.633 187.285 383.475C183.456 379.316 172.848 380.994 169.469 379.342C166.089 377.69 163.722 373.829 160 373.551Z" fill="#F9F9F9"/>
<path style="mix-blend-mode:multiply" d="M160 373.551C157.469 373.367 155.038 375.449 153.462 380.975C151.886 386.5 151.203 392.696 150.298 395.177C149.393 397.658 153 401.506 157.171 403.171C161.342 404.835 169.69 403.601 175.102 406.082C180.513 408.563 198.95 411.323 205.943 408.563C212.937 405.804 215.867 404.133 216.545 401.671C217.222 399.209 212.532 396.747 208.772 395.861C202.88 394.462 191.114 387.633 187.285 383.475C183.456 379.316 172.848 380.994 169.469 379.342C166.089 377.69 163.722 373.829 160 373.551Z" fill="url(#paint1_linear_226_3505)"/>
<path d="M151.297 391.88C150.962 393.146 150.664 394.241 150.303 395.177C149.398 397.658 153.006 401.506 157.177 403.171C161.348 404.836 169.696 403.601 175.107 406.082C180.519 408.563 198.955 411.323 205.949 408.563C212.943 405.804 215.873 404.133 216.55 401.671C216.633 401.287 216.633 400.89 216.55 400.506C200.696 413.817 168.753 396.728 151.297 391.88Z" fill="#AAABAC"/>
<path d="M136.791 142.259L137.696 151.987C137.696 151.987 117.937 156.589 107.209 155.696C96.4811 154.804 90.5128 154.019 90.5128 154.019L91.2406 140.658L136.791 142.259Z" fill="#E7BA99"/>
<path style="mix-blend-mode:multiply" d="M136.791 142.259L137.696 151.987C137.696 151.987 117.937 156.589 107.209 155.696C96.4811 154.804 90.5128 154.019 90.5128 154.019L91.2406 140.658L136.791 142.259Z" fill="url(#paint2_linear_226_3505)"/>
<path d="M104.114 140.462H110.202C111.892 140.462 113.589 156.196 114.095 157.551C114.601 158.905 102.589 158.57 97.0062 158.57L62.6518 158.608C62.6518 158.608 64.1771 137.247 63.8354 136.399C63.4936 135.551 98.0126 140.462 104.114 140.462Z" fill="#77D7FC"/>
<path style="mix-blend-mode:multiply" d="M104.114 140.462H110.202C111.892 140.462 113.589 156.196 114.095 157.551C114.601 158.905 102.589 158.57 97.0062 158.57L62.6518 158.608C62.6518 158.608 64.1771 137.247 63.8354 136.399C63.4936 135.551 98.0126 140.462 104.114 140.462Z" fill="url(#paint3_linear_226_3505)"/>
<path d="M143.127 125.873V133.291C143.127 133.291 128.81 133.291 121.235 131.196C113.659 129.101 109.469 127.652 109.469 127.652L110.918 116.804L143.127 125.873Z" fill="#E7BA99"/>
<path style="mix-blend-mode:multiply" d="M143.127 125.873V133.291C143.127 133.291 128.81 133.291 121.235 131.196C113.659 129.101 109.469 127.652 109.469 127.652L110.918 116.804L143.127 125.873Z" fill="url(#paint4_linear_226_3505)"/>
<path d="M36.8291 188.829C24.3354 200.222 53.5696 239.158 60.1202 246.424C66.6709 253.69 71.7721 265.462 76.1392 273.475C80.5063 281.488 79.0506 288.032 81.2341 292.405C83.4177 296.779 62.3101 306.962 52.1202 322.253C41.9304 337.544 17.3101 359.38 17.3101 359.38C17.3101 359.38 15.7342 368.842 25.9304 376.848C36.1266 384.855 39.0316 385.589 41.2152 381.215C43.3987 376.842 77.5949 347.722 101.62 331.703C125.645 315.684 127.095 307.652 127.823 297.488C128.551 287.323 118.361 227.601 104.532 197.753C98.1708 184.045 44.8354 181.513 36.8291 188.829Z" fill="#77D7FC"/>
<path style="mix-blend-mode:multiply" d="M36.8291 188.829C24.3354 200.222 53.5696 239.158 60.1202 246.424C66.6709 253.69 71.7721 265.462 76.1392 273.475C80.5063 281.488 79.0506 288.032 81.2341 292.405C83.4177 296.779 62.3101 306.962 52.1202 322.253C41.9304 337.544 17.3101 359.38 17.3101 359.38C17.3101 359.38 15.7342 368.842 25.9304 376.848C36.1266 384.855 39.0316 385.589 41.2152 381.215C43.3987 376.842 77.5949 347.722 101.62 331.703C125.645 315.684 127.095 307.652 127.823 297.488C128.551 287.323 118.361 227.601 104.532 197.753C98.1708 184.045 44.8354 181.513 36.8291 188.829Z" fill="url(#paint5_radial_226_3505)"/>
<path d="M22.152 354.918C25.0421 362.235 28.817 369.17 33.3925 375.57C36.4241 373.892 39.6773 372.082 43.0127 370.209C36.4367 364.557 32.6266 356.285 29.8988 347.506C26.9747 350.38 24.2975 352.937 22.152 354.918Z" fill="#77D7FC"/>
<path d="M59.7405 313.234C64.595 321.203 73.076 330.323 77.462 336.81C79.5534 335.285 81.7369 333.89 84 332.633C79.4747 325.633 71.0443 315.665 66.6329 307.032C64.3418 308.918 61.9937 311.013 59.7405 313.234Z" fill="#77D7FC"/>
<path d="M68.6708 305.361C73.0505 314.222 81.5252 324.348 86.1454 331.456C88.6771 330.127 91.2087 328.854 93.6834 327.62L94.9492 326.987C88.4239 321.209 79.2784 310.589 74.31 300.854C72.5822 302.234 70.6644 303.741 68.6708 305.361Z" fill="#77D7FC"/>
<path style="mix-blend-mode:multiply" d="M25.9118 376.842C36.108 384.861 39.013 385.57 41.2029 381.209C43.3928 376.848 77.6016 347.728 101.583 331.703C125.564 315.677 127.064 307.652 127.791 297.475C128.519 287.298 118.329 227.601 104.507 197.741C98.1396 184.026 44.8042 181.5 36.7852 188.823C24.2915 200.215 53.513 239.139 60.07 246.418C66.6269 253.696 71.7725 265.456 76.1396 273.475C80.5067 281.494 79.0447 288.032 81.2345 292.393C82.1522 294.222 78.994 297.063 74.2725 300.855C72.5763 302.222 70.6586 303.728 68.6586 305.348C67.9877 305.893 67.3231 306.443 66.6396 307.019C64.3358 308.918 61.9877 311 59.7345 313.222C56.9057 315.965 54.3612 318.986 52.1396 322.241C46.8232 330.222 37.551 339.962 29.9181 347.494C26.994 350.367 24.3168 352.924 22.1713 354.905C19.2156 357.671 17.3105 359.336 17.3105 359.336C17.3105 359.336 15.7219 368.842 25.9118 376.842Z" fill="url(#paint6_radial_226_3505)"/>
<mask id="mask0_226_3505" style="mask-type:luminance" maskUnits="userSpaceOnUse" x="26" y="304" width="117" height="85">
<path d="M100.076 316.823C100.076 316.823 118.241 302.899 124.285 304.854C130.33 306.81 136.076 309.778 140.026 307.038C143.975 304.297 144.19 309.74 139.393 313.538C134.595 317.335 126.83 323.031 123.95 329.437C122.785 332.038 122.557 334.405 120.45 337.031C119.245 338.573 117.686 339.802 115.906 340.614C115.906 340.614 116.304 341.88 112.741 343.557C109.178 345.234 110.057 344.987 110.057 344.987L109.152 345.215C108.305 346.653 107.002 347.767 105.45 348.38C102.697 349.582 100.26 349.31 97.8549 350.456C95.4498 351.601 71.4941 368.057 65.9435 372.183C60.3929 376.31 48.222 387.373 46.4308 388.525C44.6397 389.677 42.1271 386.076 38.5321 386.474C34.9372 386.873 30.4688 386.987 27.684 381.886C24.8992 376.785 25.6967 371.278 39.0764 361C52.4562 350.721 84.4941 326.892 84.4941 326.892C84.5441 325.969 84.7828 325.066 85.1953 324.239C85.6079 323.411 86.1856 322.677 86.8929 322.082C89.241 320.228 90.0574 322.247 90.0574 322.247C90.0574 322.247 91.1017 318.747 93.222 318.557L95.3169 318.367C95.3169 318.367 97.7346 313.348 100.076 316.823Z" fill="white"/>
</mask>
<g mask="url(#mask0_226_3505)">
<path d="M100.076 316.823C100.076 316.823 118.241 302.899 124.285 304.854C130.33 306.81 136.076 309.778 140.026 307.038C143.975 304.297 144.19 309.74 139.393 313.538C134.595 317.335 126.83 323.031 123.95 329.437C122.785 332.038 122.557 334.405 120.45 337.031C119.245 338.573 117.686 339.802 115.906 340.614C115.906 340.614 116.304 341.88 112.741 343.557C109.178 345.234 110.057 344.987 110.057 344.987L109.152 345.215C108.305 346.653 107.002 347.767 105.45 348.38C102.697 349.582 100.26 349.31 97.8549 350.456C95.4498 351.601 71.4941 368.057 65.9435 372.183C60.3929 376.31 48.222 387.373 46.4308 388.525C44.6397 389.677 42.1271 386.076 38.5321 386.474C34.9372 386.873 30.4688 386.987 27.684 381.886C24.8992 376.785 25.6967 371.278 39.0764 361C52.4562 350.721 84.4941 326.892 84.4941 326.892C84.5441 325.969 84.7828 325.066 85.1953 324.239C85.6079 323.411 86.1856 322.677 86.8929 322.082C89.241 320.228 90.0574 322.247 90.0574 322.247C90.0574 322.247 91.1017 318.747 93.222 318.557L95.3169 318.367C95.3169 318.367 97.7346 313.348 100.076 316.823Z" fill="#E3E5E7"/>
<path d="M102.849 332C106.893 337.398 112.646 340.373 118.823 340.266C113.589 343.234 107.994 341.683 104.121 337.734C101.766 335.329 99.9625 332.12 98.5195 328.601C97.7347 326.702 94.3296 319.392 95.1017 316.955C96.3676 312.924 97.779 320.987 98.0448 321.93C99.0199 325.551 100.648 328.963 102.849 332Z" fill="#1F177B"/>
<path d="M116.184 344.81C115.512 345.655 114.637 346.317 113.642 346.734C112.646 347.151 111.561 347.31 110.487 347.196C108.589 346.968 106.918 345.93 105.329 344.753C98.2153 339.531 90.8418 331.145 87.557 320.759C90.519 316.424 91.7469 322.968 92.5127 325.297C93.7381 329.169 95.6481 332.79 98.1519 335.987C100.394 338.847 103.243 341.173 106.494 342.797C107.911 343.493 114.614 346.664 116.184 344.81Z" fill="#1F177B"/>
<path d="M84.9046 325.284C84.6072 324.449 83.9173 323.512 83.3034 324.234C82.8287 324.797 83.0059 325.734 83.2464 326.379C87.5882 337.955 94.8477 346.936 103.791 351.765C106.462 353.208 112.259 351.886 107.044 350.006C103.698 348.765 100.591 346.956 97.8603 344.658C92.2844 340.044 87.7781 333.379 84.9046 325.284Z" fill="#1F177B"/>
<path d="M74.0059 338.664C76.297 336.987 77.2401 338.557 75.3097 340L30.9236 373.177C28.8287 374.747 26.316 377.202 26.4933 380.139C43.6135 367.987 61.1958 357.354 77.8667 343.683C85.8793 337.107 84.911 339.696 83.1451 341.088C66.1388 354.367 49.949 365.879 32.9743 379.171C31.8227 379.955 30.8676 380.995 30.1831 382.209C29.5059 383.569 29.4743 385.55 30.4047 386.12C31.2085 386.607 32.2654 385.886 33.1578 385.19L73.411 353.614C76.7464 351 80.2464 348.841 83.6388 346.493C86.1704 344.728 88.2337 345.063 85.9489 346.987C74.6072 356.531 58.6895 366.24 47.7211 376.981C46.0186 378.645 42.3414 381.057 43.1578 383.196C44.1388 385.727 51.5882 379.24 55.5186 375.854C65.3525 367.355 75.6443 359.4 86.3477 352.025C88.8413 350.316 89.8287 351.544 87.7084 353.544C76.0185 364.563 62.3287 370.93 50.7338 382.493L77.9489 365.759C79.8477 364.601 82.3223 363.601 83.2654 365.645C76.7344 369.805 70.5326 374.46 64.7148 379.569C60.0692 383.645 55.5439 388.069 50.7907 391.81C46.0376 395.55 40.949 398.607 35.8414 399.601C30.7338 400.595 25.5692 399.367 22.1135 395.202C19.8097 392.417 16.9996 385.86 18.5439 380.728C19.7338 376.797 25.2528 374.398 27.7021 372.626L57.2401 350.974L74.0059 338.664Z" fill="#1F177B"/>
<path d="M137.222 308.215C132.373 317.329 123.658 322.013 118.753 330.721C118.177 331.734 119.734 331.234 121.006 329.899C123.057 327.726 125.114 325.584 127.177 323.475C130.62 319.956 134.177 316.437 138.076 314.55C139.074 314.17 139.989 313.6 140.772 312.873C142.608 310.93 145.627 306.101 144.823 303.652C143.443 299.43 137.108 298.677 133.538 298.424C126.791 297.937 110.797 316.664 105.76 320.576C104.532 321.525 101.278 324.633 101.614 326.272C101.648 326.478 101.729 326.673 101.849 326.843C101.97 327.013 102.127 327.154 102.31 327.255C102.493 327.355 102.696 327.413 102.904 327.424C103.113 327.434 103.321 327.398 103.513 327.316C104.373 326.905 105.131 326.308 105.734 325.569L118.791 311.93C120.652 309.987 122.797 307.918 124.861 308.202C120.272 313.721 111.38 323.316 106.785 328.835C105.373 330.538 105.665 331.886 107.386 330.392C112.557 325.905 122.361 316.411 127.532 311.93C128.335 311.234 129.373 310.525 130.006 311.183C124.281 317.462 118.557 323.745 112.835 330.031C112.203 330.753 111.418 331.854 111.69 332.759C111.73 332.891 111.8 333.012 111.895 333.112C111.99 333.212 112.108 333.288 112.238 333.334C112.368 333.381 112.507 333.396 112.643 333.378C112.78 333.361 112.911 333.311 113.025 333.234C113.575 332.871 114.046 332.402 114.411 331.854C121.143 323.178 128.791 315.252 137.222 308.215Z" fill="#1F177B"/>
<path style="mix-blend-mode:multiply" d="M100.076 316.823C100.076 316.823 118.241 302.899 124.285 304.854C130.33 306.81 136.076 309.778 140.026 307.038C143.975 304.297 144.19 309.74 139.393 313.538C134.595 317.335 126.83 323.031 123.95 329.437C122.785 332.038 122.557 334.405 120.45 337.031C119.245 338.573 117.686 339.802 115.906 340.614C115.906 340.614 116.304 341.88 112.741 343.557C109.178 345.234 110.057 344.987 110.057 344.987L109.152 345.215C108.305 346.653 107.002 347.767 105.45 348.38C102.697 349.582 100.26 349.31 97.8549 350.456C95.4498 351.601 71.4941 368.057 65.9435 372.183C60.3929 376.31 48.222 387.373 46.4308 388.525C44.6397 389.677 42.1271 386.076 38.5321 386.474C34.9372 386.873 30.4688 386.987 27.684 381.886C24.8992 376.785 25.6967 371.278 39.0764 361C52.4562 350.721 84.4941 326.892 84.4941 326.892C84.5441 325.969 84.7828 325.066 85.1953 324.239C85.6079 323.411 86.1856 322.677 86.8929 322.082C89.241 320.228 90.0574 322.247 90.0574 322.247C90.0574 322.247 91.1017 318.747 93.222 318.557L95.3169 318.367C95.3169 318.367 97.7346 313.348 100.076 316.823Z" fill="url(#paint7_radial_226_3505)"/>
</g>
<path d="M73.9996 25.9493C85.5882 29.0253 93.9047 31.0126 95.5186 33.9746C97.1325 36.9367 89.9996 38.481 83.6072 40.6962C77.2148 42.9113 52.5566 40 44.5945 39.4303C36.6325 38.8607 22.2465 34.367 29.1452 26.4493C36.0439 18.5316 59.1768 22.0063 73.9996 25.9493Z" fill="#302A2C"/>
<path style="mix-blend-mode:multiply" d="M73.9996 25.9493C85.5882 29.0253 93.9047 31.0126 95.5186 33.9746C97.1325 36.9367 89.9996 38.481 83.6072 40.6962C77.2148 42.9113 52.5566 40 44.5945 39.4303C36.6325 38.8607 22.2465 34.367 29.1452 26.4493C36.0439 18.5316 59.1768 22.0063 73.9996 25.9493Z" fill="url(#paint8_linear_226_3505)"/>
<path d="M45.81 41.5317L38.2721 41.9621C38.2721 41.9621 33.0189 51.7406 25.4936 53.9494L10.0442 78.6899L28.7214 95.057L59.1328 87.2342L51.3986 65.8798C51.3986 65.8798 52.5062 60.7279 54.2467 57.4115L45.81 41.5317Z" fill="#E7BA99"/>
<path style="mix-blend-mode:multiply" d="M45.81 41.5317L38.2721 41.9621C38.2721 41.9621 33.0189 51.7406 25.4936 53.9494L10.0442 78.6899L28.7214 95.057L59.1328 87.2342L51.3986 65.8798C51.3986 65.8798 52.5062 60.7279 54.2467 57.4115L45.81 41.5317Z" fill="url(#paint9_linear_226_3505)"/>
<path d="M79.0947 30.3926C79.0947 30.3926 76.9492 42.5192 76.8859 45.3609C76.8226 48.2027 79.5441 53.0002 78.12 54.0951C76.696 55.19 71.234 53.8862 70.3795 55.2027C69.5251 56.5192 65.0884 66.2723 63.5061 67.4115C61.9238 68.5508 53.8922 62.3483 50.2656 60.247C46.6391 58.1457 34.177 43.6711 34.4935 42.3293C34.8099 40.9875 40.0821 30.0888 40.0821 30.0888C40.0821 30.0888 49.0504 20.8483 55.5821 22.209C62.1137 23.5698 79.0947 30.3926 79.0947 30.3926Z" fill="#E7BA99"/>
<path style="mix-blend-mode:multiply" d="M79.0947 30.3926C79.0947 30.3926 76.9492 42.5192 76.8859 45.3609C76.8226 48.2027 79.5441 53.0002 78.12 54.0951C76.696 55.19 71.234 53.8862 70.3795 55.2027C69.5251 56.5192 65.0884 66.2723 63.5061 67.4115C61.9238 68.5508 53.8922 62.3483 50.2656 60.247C46.6391 58.1457 34.177 43.6711 34.4935 42.3293C34.8099 40.9875 40.0821 30.0888 40.0821 30.0888C40.0821 30.0888 49.0504 20.8483 55.5821 22.209C62.1137 23.5698 79.0947 30.3926 79.0947 30.3926Z" fill="url(#paint10_linear_226_3505)"/>
<path d="M48.4747 40.5637C48.519 40.5257 52.557 42.3042 54.5823 39.2979C56.6836 36.1333 57.5317 30.589 57.5317 30.589C57.5317 30.589 70.6266 35.0194 79.095 32.7979C87.7532 30.532 75.8924 18.7029 59.9937 15.2852C55.4178 14.3042 54.4114 8.38649 46.0697 14.7472C39.8861 19.4688 40.3735 22.5827 40.3735 22.5827C40.3735 22.5827 34.2975 18.6586 32.0127 24.6523C28.8482 32.9814 33.7849 43.9308 34.5443 47.3928C34.5443 47.3928 44.2152 42.5827 43.2342 39.6017C42.2532 36.6206 41.538 33.0953 44.8735 32.3991C48.2089 31.7029 49.8355 38.7029 48.4747 40.5637Z" fill="#302A2C"/>
<path d="M85.0502 30.4875C86.3161 21.9432 84.4806 14.1521 79.1642 8.50019C75.43 4.53184 67.9363 1.22804 60.987 0.272349C54.458 -0.631601 47.8348 1.05886 42.5376 4.98121C36.6643 9.29149 32.7313 15.7472 31.5946 22.9432L55.3098 23.4939L85.0502 30.4875Z" fill="#77D7FC"/>
<path style="mix-blend-mode:multiply" d="M85.0502 30.4875C86.3161 21.9432 84.4806 14.1521 79.1642 8.50019C75.43 4.53184 67.9363 1.22804 60.987 0.272349C54.458 -0.631601 47.8348 1.05886 42.5376 4.98121C36.6643 9.29149 32.7313 15.7472 31.5946 22.9432L55.3098 23.4939L85.0502 30.4875Z" fill="url(#paint11_linear_226_3505)"/>
<path d="M48.0381 23.1583C47.0634 24.9431 43.7216 28.0507 40.0634 29.2469C36.4052 30.4431 28.3039 32.1963 28.3609 31.8228C28.4178 31.4494 30.0508 24.6963 32.0698 22.4874C34.0887 20.2785 48.0381 23.1583 48.0381 23.1583Z" fill="#77D7FC"/>
<path style="mix-blend-mode:multiply" d="M48.0381 23.1583C47.0634 24.9431 43.7216 28.0507 40.0634 29.2469C36.4052 30.4431 28.3039 32.1963 28.3609 31.8228C28.4178 31.4494 30.0508 24.6963 32.0698 22.4874C34.0887 20.2785 48.0381 23.1583 48.0381 23.1583Z" fill="url(#paint12_linear_226_3505)"/>
<path d="M95.5186 33.9749C95.5186 33.9749 68.411 25.88 56.1009 24.5256C33.3161 21.9939 29.1452 26.4243 29.1452 26.4243L32.5945 19.3927C32.5945 19.3927 39.4237 16.4306 58.6325 19.1522C68.2268 20.4829 77.4535 23.7378 85.7591 28.7218L94.6198 32.5762L95.5186 33.9749Z" fill="#77D7FC"/>
<path d="M62.5534 35.564L48.5596 33.4976L49.0394 30.248L63.0332 32.3144L62.5534 35.564Z" fill="#302A2C"/>
<path d="M50.0319 32.0761C50.0602 31.8843 50.1447 31.7051 50.2748 31.5612C50.4049 31.4174 50.5748 31.3153 50.7628 31.268C50.9509 31.2206 51.1488 31.2301 51.3315 31.2951C51.5142 31.3602 51.6735 31.478 51.7893 31.6336C51.9051 31.7891 51.9722 31.9756 51.9821 32.1693C51.992 32.363 51.9443 32.5552 51.8449 32.7218C51.7456 32.8884 51.5991 33.0218 51.424 33.1051C51.2488 33.1885 51.0529 33.218 50.861 33.1901C50.7334 33.1715 50.6106 33.1279 50.4999 33.0618C50.3891 32.9958 50.2925 32.9085 50.2154 32.805C50.1384 32.7016 50.0826 32.5839 50.0511 32.4589C50.0196 32.3338 50.0131 32.2037 50.0319 32.0761Z" fill="#77D7FC"/>
<path d="M59.5193 33.4747C59.5478 33.2813 59.633 33.1008 59.7642 32.9559C59.8954 32.8111 60.0666 32.7084 60.2562 32.6609C60.4458 32.6134 60.6452 32.6233 60.8292 32.6892C61.0132 32.7552 61.1734 32.8742 61.2897 33.0313C61.406 33.1884 61.473 33.3765 61.4823 33.5717C61.4916 33.7669 61.4428 33.9605 61.342 34.1279C61.2412 34.2953 61.0929 34.4291 60.9161 34.5122C60.7392 34.5954 60.5416 34.6242 60.3484 34.5949C60.0901 34.5559 59.8578 34.416 59.7024 34.2061C59.547 33.9961 59.4812 33.7331 59.5193 33.4747Z" fill="#77D7FC"/>
<path d="M51.0005 32.2217L52.1207 40.4622L58.9751 40.6964L60.4941 33.6204" stroke="#77D7FC" stroke-width="1.07" stroke-linecap="round" stroke-linejoin="round"/>
<path d="M52.2528 39.5571L60.4807 69.2343C60.4807 69.2343 67.5376 70.1647 74.6009 64.8039C80.1262 60.6141 81.3857 56.0508 81.3857 56.0508" stroke="#77D7FC" stroke-width="1.07" stroke-linecap="round" stroke-linejoin="round"/>
<path d="M55.5568 48.4877C62.7466 46.5193 80.8226 48.1522 82.196 51.956C84.8289 59.2725 67.8036 60.2155 67.8036 60.2155" stroke="#77D7FC" stroke-width="1.07" stroke-linecap="round" stroke-linejoin="round"/>
<path d="M57.5504 58.627C61.4618 56.8548 74.8479 55.8168 78.2656 60.6206" stroke="#77D7FC" stroke-width="1.07" stroke-linecap="round" stroke-linejoin="round"/>
<path d="M54.3732 44.361C57.9428 43.4432 60.4997 43.7977 65.2402 44.361" stroke="#77D7FC" stroke-width="1.07" stroke-linecap="round" stroke-linejoin="round"/>
<path d="M59.8099 36.8291C63.3859 42.5253 73.0124 53.3291 80.9238 55.8164" stroke="#77D7FC" stroke-width="1.07" stroke-linecap="round" stroke-linejoin="round"/>
<path d="M43.1832 20.9431C43.1307 21.2918 42.9761 21.6172 42.7388 21.8782C42.5015 22.1391 42.1922 22.3239 41.85 22.4092C41.5078 22.4945 41.148 22.4765 40.816 22.3575C40.4839 22.2384 40.1947 22.0237 39.9846 21.7404C39.7745 21.4571 39.6531 21.1179 39.6357 20.7656C39.6182 20.4133 39.7056 20.0638 39.8866 19.7611C40.0677 19.4585 40.3344 19.2162 40.653 19.065C40.9716 18.9138 41.3279 18.8603 41.6769 18.9114C41.9094 18.9455 42.1329 19.0251 42.3346 19.1457C42.5362 19.2664 42.7121 19.4256 42.852 19.6144C42.992 19.8031 43.0933 20.0177 43.1501 20.2457C43.207 20.4737 43.2182 20.7107 43.1832 20.9431Z" fill="#302A2C"/>
<path d="M71.9178 25.2029C71.8664 25.5534 71.7123 25.8809 71.4749 26.1438C71.2375 26.4067 70.9275 26.5934 70.584 26.6801C70.2405 26.7668 69.879 26.7498 69.5452 26.631C69.2115 26.5123 68.9204 26.2973 68.7088 26.0131C68.4973 25.729 68.3747 25.3885 68.3567 25.0347C68.3386 24.6809 68.4259 24.3297 68.6075 24.0255C68.7891 23.7213 69.0568 23.4778 69.3767 23.3257C69.6967 23.1737 70.0546 23.1199 70.4051 23.1713C70.6382 23.2046 70.8624 23.2836 71.0647 23.4039C71.2671 23.5242 71.4437 23.6834 71.5843 23.8722C71.7249 24.0611 71.8267 24.2759 71.884 24.5043C71.9412 24.7326 71.9527 24.9701 71.9178 25.2029Z" fill="#302A2C"/>
<path d="M56.8103 65.5067C50.785 61.5004 39.6837 57.089 31.209 54.1143C14.1204 48.1017 9.39259 68.6713 5.84196 74.7472C2.29133 80.8232 6.59512 89.4434 6.59512 96.2662C6.59512 103.089 13.0445 128.773 15.2787 135.785C20.8167 153.19 19.19 156.576 20.9116 161.197C23.1141 167.095 27.1394 175.753 32.1331 178.975C33.6837 179.981 33.2976 183.76 35.8546 186.842C40.1268 191.988 43.5318 189.032 43.5318 189.032C43.5318 189.032 73.3483 175.861 82.5951 172.07C91.8419 168.279 87.7217 152.69 87.7027 147.007C87.6837 141.323 70.9875 112.146 69.9812 103.051C68.9748 93.9561 56.8103 65.5067 56.8103 65.5067Z" fill="#77D7FC"/>
<path style="mix-blend-mode:multiply" d="M30.0132 155.753C28.317 151.722 26.6714 147.665 25.1271 143.563C19.4309 128.494 15.2727 113.025 11.7221 97.3608C9.9499 89.538 8.93092 81.1013 6.65876 73.2216C10.1714 65.8545 15.3992 48.538 31.241 54.1077C39.7157 57.095 50.817 61.5064 56.8423 65.5C56.8423 65.5 68.9815 93.9431 70.0195 103.044C71.0574 112.146 87.741 141.31 87.741 147C87.741 152.69 91.9119 168.272 82.6334 172.063C78.0258 173.962 68.6271 177.494 60.3169 180.589C49.8802 172.627 39.4056 164.772 30.0132 155.753Z" fill="url(#paint13_radial_226_3505)"/>
<path d="M34.1139 55.7852C45.405 57.494 51.8354 65.7788 58.2278 73.5826C64.6202 81.3864 81.4556 95.2598 88.6898 100.76C98.8026 108.322 109.95 114.39 121.791 118.779L118.386 136.988C118.386 136.988 105.032 134.348 95.886 130.823C80.9176 125.045 66.443 118.089 61.4746 114.405C50.0189 105.918 33.2468 89.8548 28.8037 84.1965C21.6961 75.1396 18.886 53.4814 34.1139 55.7852Z" fill="#77D7FC"/>
<path style="mix-blend-mode:multiply" d="M34.9426 157.88C36.0504 155.528 36.8829 153.056 37.4236 150.513C37.9679 157.652 38.4616 164.81 39.3603 171.931C40.1325 178.045 51.2148 173.937 55.9806 168.728C66.9616 156.734 69.3666 128.095 69.5059 126.766C70.4363 134.462 74.2084 142.924 74.3413 150.266C74.5249 160.393 73.6451 166.861 76.873 164.443C85.7654 157.753 83.835 152.152 85.9806 141.076C87.0628 143.76 87.7527 145.861 87.7527 147.007C87.7527 152.703 91.9236 168.279 82.6451 172.07C73.3666 175.861 43.5502 189.019 43.5502 189.019C43.5502 189.019 40.1451 191.975 35.873 186.829C33.3413 183.747 33.7021 179.962 32.1515 178.962C27.373 175.88 23.4932 167.823 21.2401 161.962C26.1198 165.602 31.8223 164.361 34.9426 157.88Z" fill="url(#paint14_linear_226_3505)"/>
<path d="M82.5949 172.07C101.006 175.918 115.614 199.405 120.709 210.304C124.728 218.899 139.348 246.38 144.816 255.24C156.019 273.373 158.418 286.532 164.032 307.025C168.101 321.873 183.278 382.835 183.278 382.835C183.278 382.835 170.449 387.5 164.032 388.671C157.614 389.842 151.785 376.424 143.038 360.095C134.291 343.766 122.044 307.607 117.962 302.361C113.88 297.114 81.2214 253.373 74.2278 247.544C67.2341 241.715 53.4556 226.551 46.0506 211.968C38.6455 197.386 42.3101 189.62 42.3101 189.62C42.3101 189.62 57.1329 182.532 66.8734 177.595C74.8607 173.639 79.0949 171.329 82.5949 172.07Z" fill="#77D7FC"/>
<path d="M175.519 351.753C176.455 355.468 177.36 359.076 178.202 362.443C168.36 366.118 157.982 368.157 147.481 368.481C146.088 365.823 144.626 363.019 143.05 360.114C142.791 359.633 142.531 359.12 142.265 358.601C154.114 358.772 166.303 358.038 175.519 351.753Z" fill="#77D7FC"/>
<path d="M149.867 302.412C150.505 304.919 151.289 307.388 152.215 309.804C143.177 312.881 133.824 314.936 124.329 315.931C122.93 312.507 121.658 309.481 120.569 307.12C130.531 306.722 140.354 305.456 149.867 302.412Z" fill="#77D7FC"/>
<path d="M147.266 290.405C147.361 290.874 147.456 291.329 147.545 291.76C148.095 294.469 148.652 297.26 149.298 300.051C139.614 303.215 129.57 304.386 119.399 304.728C118.996 303.908 118.527 303.122 117.994 302.38C117.443 301.671 116.361 300.247 114.905 298.329C126.481 298.045 138.292 296.323 147.266 290.405Z" fill="#77D7FC"/>
<path style="mix-blend-mode:multiply" d="M84.7347 172.652C102.14 177.766 115.842 199.829 120.741 210.304C124.76 218.899 139.38 246.38 144.849 255.24C156.051 273.373 158.45 286.532 164.064 307.025C168.133 321.873 183.311 382.835 183.311 382.835C183.311 382.835 170.481 387.5 164.064 388.671C157.646 389.842 151.817 376.424 143.07 360.095C134.323 343.766 122.076 307.607 117.994 302.361C115.406 299.032 101.349 280.259 89.6144 265.456C87.279 234.538 84.2347 203.582 84.7347 172.652Z" fill="url(#paint15_radial_226_3505)"/>
<path d="M316.911 253.702L198.772 191C197.532 190.345 196.437 189.447 195.552 188.359C194.667 187.272 194.01 186.018 193.62 184.671C191.767 178.576 187.875 173.305 182.595 169.74L176.31 164.354L179.475 158.329L187.329 160.443C193.458 162.096 199.908 162.15 206.063 160.601C208.584 159.949 211.258 160.251 213.57 161.449L332.291 224.449C333.914 225.31 335.131 226.778 335.677 228.533C336.222 230.288 336.051 232.187 335.202 233.816L326.266 250.791C325.405 252.411 323.939 253.625 322.187 254.171C320.436 254.716 318.54 254.548 316.911 253.702Z" fill="#77D7FC"/>
<path style="mix-blend-mode:multiply" d="M332.525 238.899L326.266 250.791C325.405 252.413 323.938 253.628 322.185 254.174C320.432 254.719 318.534 254.55 316.905 253.702L198.766 191C197.526 190.345 196.431 189.447 195.546 188.36C194.661 187.272 194.004 186.018 193.614 184.671C191.763 178.577 187.872 173.306 182.595 169.74L176.31 164.354L179.215 158.829C225.095 183.272 286.038 215.62 332.525 238.899Z" fill="url(#paint16_linear_226_3505)"/>
<path d="M247.937 179.513L261.304 186.544C251.291 193.743 241.259 200.916 231.209 208.063L220.082 202.209C229.373 194.656 238.658 187.091 247.937 179.513Z" fill="#77D7FC"/>
<path d="M266.076 189.006L279.431 196.038C269.418 203.236 259.386 210.409 249.336 217.557L238.209 211.703C247.509 204.146 256.798 196.58 266.076 189.006Z" fill="#77D7FC"/>
<path d="M182.205 162.969L181.678 163.971C180.388 166.425 177.353 167.368 174.9 166.077L114.956 134.553C112.503 133.263 111.56 130.228 112.85 127.775L113.377 126.772C114.667 124.319 117.702 123.376 120.155 124.666L180.099 156.19C182.553 157.481 183.495 160.515 182.205 162.969Z" fill="#302A2C"/>
<path d="M174.411 141.475C174.193 140.888 173.824 140.368 173.342 139.968C172.93 139.629 172.484 139.332 172.013 139.082C170.443 138.234 168.677 137.899 168.76 138.608C168.817 139.082 168.709 138.563 168.203 137.93C167.912 137.519 167.531 137.179 167.089 136.937C166.632 136.66 166.128 136.471 165.601 136.38C163.88 136.101 161.253 135.025 160.184 135.924C157.304 138.348 157.291 139.449 157.127 140.418C157.044 140.905 159.082 141.627 158.994 142.12C158.815 142.869 158.567 143.6 158.253 144.304C157.228 147.468 151.487 146.101 150.418 149.728C149.348 153.355 145.665 152.981 144.538 155.323C143.411 157.665 159.323 168.671 162.513 167.348C165.19 166.26 173.203 169.785 175.487 168.437C177.576 167.215 180.285 161.772 181.443 160.671C182.601 159.57 183.665 155.367 183.779 152.443C183.892 149.519 183.608 148.329 182.019 147.418C181.81 147.291 181.633 147.196 181.481 147.114C180.386 146.576 180.108 146.848 179.329 147.747C179.332 147.692 179.332 147.637 179.329 147.582C179.329 147.582 179.329 147.551 179.329 147.532C179.446 146.889 179.429 146.229 179.28 145.593C179.131 144.958 178.852 144.359 178.462 143.836C178.057 143.342 177.591 142.902 177.076 142.525C175.981 141.728 174.835 141.38 174.544 142.374C174.563 142.068 174.518 141.762 174.411 141.475Z" fill="#77D7FC"/>
<path style="mix-blend-mode:multiply" d="M174.411 141.475C174.193 140.888 173.824 140.368 173.342 139.968C172.93 139.629 172.484 139.332 172.013 139.082C170.443 138.234 168.677 137.899 168.76 138.608C168.817 139.082 168.709 138.563 168.203 137.93C167.912 137.519 167.531 137.179 167.089 136.937C166.632 136.66 166.128 136.471 165.601 136.38C163.88 136.101 161.253 135.025 160.184 135.924C157.304 138.348 157.291 139.449 157.127 140.418C157.044 140.905 159.082 141.627 158.994 142.12C158.815 142.869 158.567 143.6 158.253 144.304C157.228 147.468 151.487 146.101 150.418 149.728C149.348 153.355 145.665 152.981 144.538 155.323C143.411 157.665 159.323 168.671 162.513 167.348C165.19 166.26 173.203 169.785 175.487 168.437C177.576 167.215 180.285 161.772 181.443 160.671C182.601 159.57 183.665 155.367 183.779 152.443C183.892 149.519 183.608 148.329 182.019 147.418C181.81 147.291 181.633 147.196 181.481 147.114C180.386 146.576 180.108 146.848 179.329 147.747C179.332 147.692 179.332 147.637 179.329 147.582C179.329 147.582 179.329 147.551 179.329 147.532C179.446 146.889 179.429 146.229 179.28 145.593C179.131 144.958 178.852 144.359 178.462 143.836C178.057 143.342 177.591 142.902 177.076 142.525C175.981 141.728 174.835 141.38 174.544 142.374C174.563 142.068 174.518 141.762 174.411 141.475Z" fill="url(#paint17_radial_226_3505)"/>
<path style="mix-blend-mode:multiply" d="M150.405 149.715C151.475 146.089 157.215 147.437 158.24 144.291C158.554 143.588 158.802 142.857 158.981 142.108C159.07 141.614 157.032 140.892 157.114 140.405C157.278 139.437 157.291 138.336 160.171 135.911C160.291 135.819 160.426 135.746 160.57 135.696C161.289 136.287 161.825 137.071 162.114 137.956C162.791 139.994 162.576 146.336 161.082 147.994C159.449 149.804 154.608 150.304 152.43 151.222C149.983 152.189 147.757 153.642 145.886 155.494C145.531 155.872 145.231 156.298 144.994 156.76C144.576 156.158 144.361 155.658 144.538 155.336C145.652 152.968 149.329 153.31 150.405 149.715Z" fill="url(#paint18_linear_226_3505)"/>
<path style="mix-blend-mode:multiply" d="M179.335 147.589C178.848 148.855 178.595 153.659 176.506 156.735C174.418 159.81 169.304 164.152 167.829 165.247C170.215 164.918 175.386 160.545 177.664 157.583C180.253 154.209 180.899 148.779 181.462 147.07C180.367 146.532 180.089 146.804 179.31 147.703C179.32 147.665 179.329 147.627 179.335 147.589Z" fill="url(#paint19_linear_226_3505)"/>
<path style="mix-blend-mode:multiply" d="M172.013 139.083C170.443 138.234 168.677 137.899 168.76 138.608C168.817 139.083 168.709 138.564 168.203 137.931C168.453 139.301 168.453 140.706 168.203 142.076C168.051 143.026 168.019 147.614 165.671 151.228C162.918 155.431 157.766 158.715 157.367 159.734C158.696 158.696 164.108 156.481 167.253 152.14C170.532 147.595 171.551 140.905 172.013 139.083Z" fill="url(#paint20_linear_226_3505)"/>
<path style="mix-blend-mode:multiply" d="M174.557 142.38C174.572 142.071 174.523 141.763 174.411 141.475C174.367 141.595 174.342 141.734 174.291 141.861C173.898 143.19 173.753 147.785 172.012 151.557C170.114 155.677 164.082 161.158 163.348 162.437C164.645 161.551 171.082 156.576 173.386 152.734C175.69 148.892 176.373 144.006 177.082 142.532C175.987 141.734 174.842 141.386 174.557 142.38Z" fill="url(#paint21_linear_226_3505)"/>
<path d="M139.835 149.564C134.905 150.633 133.652 150.671 129.835 148.298C126.019 145.924 122.24 143.291 123.183 141.203C124.126 139.114 124.62 140.272 129.24 140.722C133.86 141.171 135.12 145.057 140.031 145.494C144.943 145.931 143.202 148.836 139.835 149.564Z" fill="#77D7FC"/>
<path style="mix-blend-mode:multiply" d="M139.835 149.564C134.905 150.633 133.652 150.671 129.835 148.298C126.019 145.924 122.24 143.291 123.183 141.203C124.126 139.114 124.62 140.272 129.24 140.722C133.86 141.171 135.12 145.057 140.031 145.494C144.943 145.931 143.202 148.836 139.835 149.564Z" fill="url(#paint22_linear_226_3505)"/>
<path d="M123.247 126.304C124.715 127.449 127.044 128.202 129.747 131.171C132.5 134.234 135.633 134.297 132.139 143.829C131.81 144.715 129.715 143.297 129.462 143.829C128.683 145.335 130.171 147.627 131.088 149.145C131.235 149.437 131.442 149.694 131.695 149.9C131.948 150.106 132.242 150.257 132.557 150.342C133.236 150.46 133.935 150.31 134.506 149.924C134.932 149.664 135.327 149.356 135.683 149.006C135.05 149.639 134.766 152.171 137.582 153.164C137.883 153.257 138.19 153.331 138.5 153.386C139.075 153.501 139.669 153.479 140.234 153.323C141.269 152.964 142.149 152.257 142.721 151.323C141.683 153.304 143.012 154.038 144.62 154.304C145.397 154.424 146.182 154.486 146.968 154.487C147.412 154.489 147.852 154.402 148.261 154.231C148.671 154.06 149.042 153.81 149.354 153.494C149.411 153.43 149.487 153.361 149.544 153.291C149.259 154.013 149.322 154.848 150.81 155.253C151.17 155.354 151.535 155.435 151.905 155.494C153.436 155.658 154.746 155.145 156.367 153.348C158.36 151.145 161.031 148.443 160.797 146.608C160.563 144.772 160.5 141.038 160.126 139.335C159.43 136.316 155.557 134.221 152.652 131.823C147.272 127.392 147.417 123.595 136.892 121.608C133.715 121.019 121.43 124.873 123.247 126.304Z" fill="#77D7FC"/>
<path style="mix-blend-mode:multiply" d="M142.722 151.323C141.684 153.304 143.013 154.038 144.62 154.304C144.69 154.038 144.778 153.766 144.873 153.494C145.576 151.323 146.456 145.785 146.848 141.468C147.032 139.468 145.867 135.69 144.443 134.215C145.013 135.981 145.709 138.842 145.158 140.722C144.114 144.152 143.259 148.608 142.627 150.025C142.104 151.297 141.288 152.426 140.247 153.323C141.278 152.962 142.152 152.255 142.722 151.323Z" fill="url(#paint23_linear_226_3505)"/>
<path style="mix-blend-mode:multiply" d="M149.595 153.31C149.31 154.032 149.373 154.867 150.861 155.272C151.221 155.374 151.586 155.454 151.956 155.513C151.988 154.954 152.088 154.402 152.253 153.867C152.76 151.969 153.285 146.943 153.272 142.918C153.272 140.766 151.329 136.69 149.703 135.247C151.082 136.956 152.146 140.785 151.747 142.918C151.006 146.81 150.089 151.557 149.449 153.329C149.449 153.386 149.405 153.456 149.392 153.513C149.462 153.45 149.538 153.38 149.595 153.31Z" fill="url(#paint24_linear_226_3505)"/>
<path style="mix-blend-mode:multiply" d="M135.683 149.019C135.05 149.652 134.765 152.184 137.582 153.177C138.79 148.831 139.689 144.404 140.272 139.93C140.358 138.592 140.153 137.25 139.672 135.998C139.19 134.746 138.442 133.613 137.481 132.677C138.544 135.209 139.613 137.424 138.993 139.253C137.664 143.152 135.689 147.975 134.506 149.93C134.932 149.673 135.327 149.367 135.683 149.019Z" fill="url(#paint25_linear_226_3505)"/>
<mask id="mask1_226_3505" style="mask-type:luminance" maskUnits="userSpaceOnUse" x="133" y="239" width="60" height="148">
<path d="M139.525 293.31C139.525 293.31 131.298 270.348 134.766 262.829C138.234 255.31 142.481 248.158 140.975 243.171C139.469 238.183 144.601 238.006 146.867 244.095C149.133 250.183 152.405 259.975 157.627 263.677C159.741 265.177 161.893 265.506 163.798 268.183C164.966 269.9 165.7 271.874 165.937 273.937C165.937 273.937 167.234 273.449 167.836 277.968C168.437 282.487 168.469 281.342 168.469 281.342V282.481C168.469 282.481 170.044 283.696 170.437 287.164C170.829 290.633 169.924 293.671 170.361 296.658C170.798 299.645 179.817 329.924 182.196 336.937C184.576 343.949 191.69 359.367 192.323 361.62C192.956 363.873 188.893 366.956 188.31 371.462C187.728 375.968 186.652 381.557 181.152 384.962C175.652 388.367 170.722 387.266 164.652 370.342C158.582 353.418 144.855 312.937 144.855 312.937C143.983 312.849 143.156 312.511 142.472 311.964C141.789 311.417 141.277 310.685 141 309.854C139.899 306.886 142 305.873 142 305.873C142 305.873 139.013 304.506 139.386 301.88L139.766 299.259C139.766 299.259 135.627 296.183 139.525 293.31Z" fill="white"/>
</mask>
<g mask="url(#mask1_226_3505)">
<path d="M139.525 293.31C139.525 293.31 131.298 270.348 134.766 262.829C138.234 255.31 142.481 248.158 140.975 243.171C139.469 238.183 144.601 238.006 146.867 244.095C149.133 250.183 152.405 259.975 157.627 263.677C159.741 265.177 161.893 265.506 163.798 268.183C164.966 269.9 165.7 271.874 165.937 273.937C165.937 273.937 167.234 273.449 167.836 277.968C168.437 282.487 168.469 281.342 168.469 281.342V282.481C168.469 282.481 170.044 283.696 170.437 287.164C170.829 290.633 169.924 293.671 170.361 296.658C170.798 299.645 179.817 329.924 182.196 336.937C184.576 343.949 191.69 359.367 192.323 361.62C192.956 363.873 188.893 366.956 188.31 371.462C187.728 375.968 186.652 381.557 181.152 384.962C175.652 388.367 170.722 387.266 164.652 370.342C158.582 353.418 144.855 312.937 144.855 312.937C143.983 312.849 143.156 312.511 142.472 311.964C141.789 311.417 141.277 310.685 141 309.854C139.899 306.886 142 305.873 142 305.873C142 305.873 139.013 304.506 139.386 301.88L139.766 299.259C139.766 299.259 135.627 296.183 139.525 293.31Z" fill="#E3E5E7"/>
<path d="M154.431 290.101C160.588 285.068 164.811 278.056 166.38 270.259C167.766 276.854 164.842 283.829 160.108 288.614C157.19 291.46 153.8 293.777 150.089 295.462C148.089 296.411 140.38 300.525 138.31 299.538C134.886 297.861 142.785 296.259 143.735 295.943C147.622 294.654 151.245 292.675 154.431 290.101Z" fill="#1F177B"/>
<path d="M169.937 273.633C171.298 275.696 171.38 278.411 170.659 280.778C169.937 283.145 168.513 285.209 167.007 287.19C160.247 296 150.463 305.082 139.893 309.019C136.627 305.221 143.058 303.816 145.444 302.899C149.635 301.277 153.518 298.95 156.925 296.019C160.342 293.084 163.243 289.597 165.507 285.702C166.52 283.911 171.247 275.62 169.937 273.633Z" fill="#1F177B"/>
<path d="M143.406 312.43C142.545 312.785 141.507 313.633 142.001 314.418C142.399 315.019 143.323 314.81 143.988 314.519C156.026 309.219 166.186 300.411 173.14 289.247C175.191 285.93 175.501 278.658 172.355 285.146C170.361 289.235 167.867 293.062 164.931 296.538C159.128 303.478 151.747 308.928 143.406 312.43Z" fill="#1F177B"/>
<path d="M153.026 326.284C152.064 323.392 153.779 322.24 154.614 324.677C161.032 343.369 167.439 362.061 173.836 380.753C174.747 383.405 176.367 386.582 179.184 386.449C172.374 364.822 167.108 342.652 158.753 321.576C154.735 311.449 156.893 312.715 157.728 314.924C165.595 336.379 172.076 356.835 179.943 378.291C180.424 379.595 180.95 380.968 182.045 381.835C183.14 382.702 184.975 382.772 185.753 381.62C186.424 380.626 186.026 379.291 185.608 378.164L166.772 327.272C165.216 323.057 164.127 318.645 162.836 314.367C161.861 311.139 162.716 308.588 163.905 311.481C169.817 325.822 174.665 345.898 181.785 359.803C182.893 361.955 184.171 366.601 186.38 365.614C189.026 364.43 184.924 355 182.798 350.031C177.372 337.319 172.673 324.308 168.722 311.063C167.785 307.898 169.19 306.702 170.494 309.392C177.69 324.196 179.988 341.424 187.734 356.126C184.924 344.687 182.116 333.249 179.31 321.81C178.728 319.436 178.456 316.303 180.614 315.158C182.699 323.165 185.412 330.995 188.728 338.576C191.304 344.455 194.241 350.183 196.469 356.208C198.697 362.234 200.209 368.626 199.785 375.031C199.361 381.436 196.842 387.879 192.038 392.12C188.829 394.955 181.956 398.367 177.576 396.341C174.222 394.791 173.462 387.848 172.431 384.759C168.304 372.316 164.175 359.869 160.045 347.417C157.711 340.392 155.372 333.348 153.026 326.284Z" fill="#1F177B"/>
<path d="M141.33 246.696C148.558 252.918 150.621 263.899 157.45 270.183C158.247 270.911 158.191 268.962 157.279 267.348C155.811 264.745 154.364 262.135 152.937 259.519C150.564 255.152 148.216 250.658 147.488 245.734C147.419 244.558 147.131 243.406 146.64 242.335C145.304 240.013 141.577 236.152 139.102 237.114C134.792 238.772 132.412 246.683 131.229 251.145C128.988 259.576 142.235 279.899 144.564 286.266C145.127 287.816 147.165 291.962 148.766 291.544C149.242 291.373 149.646 291.047 149.914 290.619C150.183 290.191 150.3 289.686 150.247 289.183C150.116 288.182 149.759 287.223 149.203 286.38L139.925 269.823C138.602 267.456 137.235 264.759 138.058 262.158C141.994 267.994 148.589 279.247 152.532 285.114C153.747 286.911 155.064 286.57 154.14 284.392C151.323 277.848 145.058 265.405 142.241 258.886C141.804 257.867 141.418 256.557 142.197 255.778C146.551 263.044 150.904 270.308 155.254 277.57C155.754 278.405 156.577 279.373 157.494 279.051C157.796 278.905 158.039 278.662 158.183 278.361C158.328 278.06 158.367 277.718 158.292 277.392C158.124 276.743 157.81 276.142 157.374 275.633C150.844 266.692 145.454 256.971 141.33 246.696Z" fill="#1F177B"/>
</g>
</g>
<defs>
<linearGradient id="paint0_linear_226_3505" x1="45.3797" y1="367.848" x2="25.5949" y2="398.595" gradientUnits="userSpaceOnUse">
<stop stop-color="#473E45"/>
<stop offset="1" stop-color="white" stop-opacity="0"/>
</linearGradient>
<linearGradient id="paint1_linear_226_3505" x1="186.899" y1="374.943" x2="182.981" y2="401.297" gradientUnits="userSpaceOnUse">
<stop stop-color="#473E45"/>
<stop offset="1" stop-color="white" stop-opacity="0"/>
</linearGradient>
<linearGradient id="paint2_linear_226_3505" x1="107.064" y1="145.7" x2="119.16" y2="154.196" gradientUnits="userSpaceOnUse">
<stop stop-color="#705B5A"/>
<stop offset="1" stop-color="white" stop-opacity="0"/>
</linearGradient>
<linearGradient id="paint3_linear_226_3505" x1="75.7278" y1="146.063" x2="109.614" y2="157.038" gradientUnits="userSpaceOnUse">
<stop stop-color="#473E45"/>
<stop offset="1" stop-color="white" stop-opacity="0"/>
</linearGradient>
<linearGradient id="paint4_linear_226_3505" x1="118.652" y1="122.918" x2="129.292" y2="128.266" gradientUnits="userSpaceOnUse">
<stop stop-color="#705B5A"/>
<stop offset="1" stop-color="white" stop-opacity="0"/>
</linearGradient>
<radialGradient id="paint5_radial_226_3505" cx="0" cy="0" r="1" gradientUnits="userSpaceOnUse" gradientTransform="translate(127.096 292.347) rotate(138.66) scale(32.9493 169.03)">
<stop stop-color="#473E45"/>
<stop offset="1" stop-color="white" stop-opacity="0"/>
</radialGradient>
<radialGradient id="paint6_radial_226_3505" cx="0" cy="0" r="1" gradientUnits="userSpaceOnUse" gradientTransform="translate(90.9212 343.151) rotate(150.04) scale(116.095 35.9894)">
<stop stop-color="#473E45"/>
<stop offset="1" stop-color="white" stop-opacity="0"/>
</radialGradient>
<radialGradient id="paint7_radial_226_3505" cx="0" cy="0" r="1" gradientUnits="userSpaceOnUse" gradientTransform="translate(132.129 324.557) rotate(-119.83) scale(85.4873 37.6144)">
<stop stop-color="#473E45"/>
<stop offset="1" stop-color="white" stop-opacity="0"/>
</radialGradient>
<linearGradient id="paint8_linear_226_3505" x1="60.2467" y1="53.051" x2="60.8571" y2="30.6199" gradientUnits="userSpaceOnUse">
<stop stop-color="white" stop-opacity="0"/>
<stop offset="1" stop-color="#5B5976"/>
</linearGradient>
<linearGradient id="paint9_linear_226_3505" x1="56.5602" y1="62.9613" x2="30.1906" y2="69.6893" gradientUnits="userSpaceOnUse">
<stop stop-color="#705B5A"/>
<stop offset="1" stop-color="white" stop-opacity="0"/>
</linearGradient>
<linearGradient id="paint10_linear_226_3505" x1="64.0758" y1="28.6204" x2="56.9808" y2="46.6774" gradientUnits="userSpaceOnUse">
<stop stop-color="#705B5A"/>
<stop offset="1" stop-color="white" stop-opacity="0"/>
</linearGradient>
<linearGradient id="paint11_linear_226_3505" x1="69.1452" y1="5.59513" x2="56.2718" y2="28.6268" gradientUnits="userSpaceOnUse">
<stop stop-color="white" stop-opacity="0"/>
<stop offset="1" stop-color="#5B5976"/>
</linearGradient>
<linearGradient id="paint12_linear_226_3505" x1="31.4586" y1="34.6282" x2="39.0661" y2="24.0575" gradientUnits="userSpaceOnUse">
<stop stop-color="white" stop-opacity="0"/>
<stop offset="1" stop-color="#5B5976"/>
</linearGradient>
<radialGradient id="paint13_radial_226_3505" cx="0" cy="0" r="1" gradientUnits="userSpaceOnUse" gradientTransform="translate(61.3788 96.4016) rotate(-141.25) scale(55.7848 30.6816)">
<stop stop-color="#473E45"/>
<stop offset="1" stop-color="white" stop-opacity="0"/>
</radialGradient>
<linearGradient id="paint14_linear_226_3505" x1="92.6451" y1="200.013" x2="47.8983" y2="149.184" gradientUnits="userSpaceOnUse">
<stop stop-color="#473E45"/>
<stop offset="1" stop-color="white" stop-opacity="0"/>
</linearGradient>
<radialGradient id="paint15_radial_226_3505" cx="0" cy="0" r="1" gradientUnits="userSpaceOnUse" gradientTransform="translate(160.54 313.471) rotate(174.62) scale(41.7785 160.011)">
<stop offset="0.08" stop-color="#473E45"/>
<stop offset="1" stop-color="white" stop-opacity="0"/>
</radialGradient>
<linearGradient id="paint16_linear_226_3505" x1="210.244" y1="202.06" x2="172.165" y2="197.578" gradientUnits="userSpaceOnUse">
<stop stop-color="white" stop-opacity="0"/>
<stop offset="1" stop-color="#473E45"/>
</linearGradient>
<radialGradient id="paint17_radial_226_3505" cx="0" cy="0" r="1" gradientUnits="userSpaceOnUse" gradientTransform="translate(151.924 149.043) rotate(180) scale(12.9304 21.8523)">
<stop stop-color="#5B5976"/>
<stop offset="0.16" stop-color="#6C6B84" stop-opacity="0.89"/>
<stop offset="0.47" stop-color="#9A99AB" stop-opacity="0.61"/>
<stop offset="0.87" stop-color="#E4E4E9" stop-opacity="0.16"/>
<stop offset="1" stop-color="white" stop-opacity="0"/>
</radialGradient>
<linearGradient id="paint18_linear_226_3505" x1="176.968" y1="136.43" x2="139.551" y2="151.563" gradientUnits="userSpaceOnUse">
<stop stop-color="white" stop-opacity="0"/>
<stop offset="1" stop-color="#5B5976"/>
</linearGradient>
<linearGradient id="paint19_linear_226_3505" x1="168.108" y1="127.038" x2="178.411" y2="172.95" gradientUnits="userSpaceOnUse">
<stop stop-color="white" stop-opacity="0"/>
<stop offset="1" stop-color="#5B5976"/>
</linearGradient>
<linearGradient id="paint20_linear_226_3505" x1="160.063" y1="128.842" x2="170.367" y2="174.753" gradientUnits="userSpaceOnUse">
<stop stop-color="white" stop-opacity="0"/>
<stop offset="1" stop-color="#5B5976"/>
</linearGradient>
<linearGradient id="paint21_linear_226_3505" x1="164.677" y1="127.804" x2="174.981" y2="173.721" gradientUnits="userSpaceOnUse">
<stop stop-color="white" stop-opacity="0"/>
<stop offset="1" stop-color="#5B5976"/>
</linearGradient>
<linearGradient id="paint22_linear_226_3505" x1="123.109" y1="147.603" x2="136.099" y2="143.477" gradientUnits="userSpaceOnUse">
<stop stop-color="white" stop-opacity="0"/>
<stop offset="1" stop-color="#5B5976"/>
</linearGradient>
<linearGradient id="paint23_linear_226_3505" x1="144.622" y1="154.35" x2="141.809" y2="134.612" gradientUnits="userSpaceOnUse">
<stop stop-color="white" stop-opacity="0"/>
<stop offset="1" stop-color="#5B5976"/>
</linearGradient>
<linearGradient id="paint24_linear_226_3505" x1="152.377" y1="155.47" x2="149.501" y2="135.294" gradientUnits="userSpaceOnUse">
<stop stop-color="white" stop-opacity="0"/>
<stop offset="1" stop-color="#5B5976"/>
</linearGradient>
<linearGradient id="paint25_linear_226_3505" x1="138.63" y1="153.043" x2="135.766" y2="132.942" gradientUnits="userSpaceOnUse">
<stop stop-color="white" stop-opacity="0"/>
<stop offset="1" stop-color="#5B5976"/>
</linearGradient>
<clipPath id="clip0_226_3505">
<rect width="336" height="410.076" fill="white" transform="matrix(-1 0 0 1 336 0)"/>
</clipPath>
</defs>
</svg>
