<svg width="925" height="976" viewBox="0 0 925 976" fill="none" xmlns="http://www.w3.org/2000/svg">
<path d="M487.967 166.235L516.472 237.806C521.382 250.132 536.672 254.413 547.268 246.427L608.79 200.059L549.53 249.286C539.324 257.764 539.978 273.628 550.848 281.238L613.957 325.42L548.828 284.273C537.61 277.186 522.725 282.71 518.846 295.4L496.328 369.073L515.335 294.417C518.609 281.558 508.755 269.108 495.489 269.341L418.462 270.692L495.339 265.698C508.579 264.838 517.375 251.619 513.054 239.074L487.967 166.235Z" fill="black"/>
<path d="M894.108 220.995L894.137 221.038L894.171 221.077C933.03 267.064 932.251 339.412 899.083 419.501C865.937 499.537 800.543 587.015 710.725 662.913C620.906 738.811 523.745 788.695 439.302 808.024C354.802 827.367 283.337 816.065 244.478 770.078L244.445 770.04L244.408 770.004C201.525 728.6 202.249 656.341 236.463 575.078C270.643 493.898 338.105 404.141 427.923 328.243C517.741 252.346 617.657 200.936 703.483 180.845C789.4 160.732 860.764 172.076 894.108 220.995Z" stroke="black" stroke-width="2"/>
</svg>
