<svg width="84" height="84" viewBox="0 0 84 84" fill="none" xmlns="http://www.w3.org/2000/svg">
<path d="M46.748 48.7258C51.193 55.8928 58.2217 67.7152 57.9512 67.8829C57.6808 68.0506 50.2136 56.5003 45.7686 49.3333C41.3236 42.1663 41.584 42.0967 41.8544 41.929C42.1249 41.7612 42.303 41.5589 46.748 48.7258Z" fill="url(#paint0_linear_331_5189)"/>
<path d="M37.9403 34.5246C33.4953 27.3576 26.0281 15.8073 25.7576 15.975C25.4872 16.1427 32.5159 27.9651 36.9609 35.1321C41.4059 42.299 41.584 42.0967 41.8544 41.929C42.1249 41.7612 42.3853 41.6916 37.9403 34.5246Z" fill="url(#paint1_linear_331_5189)"/>
<path d="M48.4541 37.1563C55.6211 32.7113 67.4434 25.6826 67.6112 25.9531C67.7789 26.2235 56.2285 33.6907 49.0615 38.1357C41.8946 42.5807 41.825 42.3203 41.6572 42.0499C41.4895 41.7794 41.2871 41.6013 48.4541 37.1563Z" fill="url(#paint2_linear_331_5189)"/>
<path d="M34.6465 45.7213C27.4795 50.1663 15.9291 57.6335 16.0968 57.904C16.2646 58.1744 28.0869 51.1457 35.2539 46.7007C42.4209 42.2557 42.2185 42.0776 42.0508 41.8072C41.883 41.5367 41.8134 41.2763 34.6465 45.7213Z" fill="url(#paint3_linear_331_5189)"/>
<path d="M33.6789 39.4205C25.468 37.4958 12.0206 34.6085 11.9479 34.9184C11.8753 35.2282 25.205 38.6178 33.4159 40.5426C41.6268 42.4673 41.6097 42.1983 41.6823 41.8884C41.7549 41.5786 41.8898 41.3452 33.6789 39.4205Z" fill="url(#paint4_linear_331_5189)"/>
<path d="M44.4059 33.726C46.3306 25.5151 49.2179 12.0677 48.908 11.995C48.5982 11.9224 45.2086 25.2521 43.2839 33.463C41.3591 41.6739 41.6281 41.6568 41.938 41.7294C42.2478 41.802 42.4812 41.937 44.4059 33.726Z" fill="url(#paint5_linear_331_5189)"/>
<path d="M49.7665 43.0241C57.9775 44.9488 71.3072 48.3384 71.2345 48.6483C71.1619 48.9581 57.7144 46.0709 49.5035 44.1462C41.2926 42.2214 41.4275 41.9881 41.5002 41.6782C41.5728 41.3684 41.5556 41.0994 49.7665 43.0241Z" fill="url(#paint6_linear_331_5189)"/>
<path d="M39.3626 49.4761C37.4379 57.687 34.5507 71.1345 34.8605 71.2071C35.1704 71.2797 38.56 57.95 40.4847 49.7391C42.4094 41.5282 42.1404 41.5454 41.8306 41.4727C41.5207 41.4001 41.2874 41.2652 39.3626 49.4761Z" fill="url(#paint7_linear_331_5189)"/>
<defs>
<linearGradient id="paint0_linear_331_5189" x1="41.8544" y1="41.929" x2="57.9512" y2="67.8829" gradientUnits="userSpaceOnUse">
<stop/>
<stop offset="0.515819" stop-opacity="0.64"/>
<stop offset="1"/>
</linearGradient>
<linearGradient id="paint1_linear_331_5189" x1="41.8544" y1="41.929" x2="25.7576" y2="15.975" gradientUnits="userSpaceOnUse">
<stop/>
<stop offset="0.515819" stop-opacity="0.64"/>
<stop offset="1"/>
</linearGradient>
<linearGradient id="paint2_linear_331_5189" x1="41.6572" y1="42.0499" x2="67.6112" y2="25.9531" gradientUnits="userSpaceOnUse">
<stop/>
<stop offset="0.515819" stop-opacity="0.64"/>
<stop offset="1"/>
</linearGradient>
<linearGradient id="paint3_linear_331_5189" x1="42.0508" y1="41.8072" x2="16.0968" y2="57.904" gradientUnits="userSpaceOnUse">
<stop/>
<stop offset="0.515819" stop-opacity="0.64"/>
<stop offset="1"/>
</linearGradient>
<linearGradient id="paint4_linear_331_5189" x1="41.6823" y1="41.8884" x2="11.9479" y2="34.9184" gradientUnits="userSpaceOnUse">
<stop/>
<stop offset="0.515819" stop-opacity="0.64"/>
<stop offset="1"/>
</linearGradient>
<linearGradient id="paint5_linear_331_5189" x1="41.938" y1="41.7294" x2="48.908" y2="11.995" gradientUnits="userSpaceOnUse">
<stop/>
<stop offset="0.515819" stop-opacity="0.64"/>
<stop offset="1"/>
</linearGradient>
<linearGradient id="paint6_linear_331_5189" x1="41.5002" y1="41.6782" x2="71.2345" y2="48.6483" gradientUnits="userSpaceOnUse">
<stop/>
<stop offset="0.515819" stop-opacity="0.64"/>
<stop offset="1"/>
</linearGradient>
<linearGradient id="paint7_linear_331_5189" x1="41.8306" y1="41.4727" x2="34.8605" y2="71.2071" gradientUnits="userSpaceOnUse">
<stop/>
<stop offset="0.515819" stop-opacity="0.64"/>
<stop offset="1"/>
</linearGradient>
</defs>
</svg>
