<svg width="30" height="30" viewBox="0 0 30 30" fill="none" xmlns="http://www.w3.org/2000/svg">
<path d="M18.5999 17.4001H11.3999C8.74893 17.4001 6.59985 15.251 6.59985 12.6001V0.600098H23.3999V12.6001C23.3999 15.251 21.2508 17.4001 18.5999 17.4001Z" fill="#0469A2"/>
<path d="M18.6002 18H11.4002C8.42268 18 6.00024 15.5776 6.00024 12.6V0H24.0002V12.6C24.0002 15.5776 21.5778 18 18.6002 18ZM7.20024 1.2V12.6C7.20024 14.9159 9.08436 16.8 11.4002 16.8H18.6002C20.9161 16.8 22.8002 14.9159 22.8002 12.6V1.2H7.20024Z" fill="black"/>
<path d="M17.892 26.4H12.1082L10.6682 19.2H19.332L17.892 26.4ZM13.092 25.2H16.9082L17.8682 20.4H12.132L13.092 25.2Z" fill="black"/>
<path d="M22.8002 30H7.2002V28.2C7.2002 26.5458 8.546 25.2 10.2002 25.2H19.8002C21.4544 25.2 22.8002 26.5458 22.8002 28.2V30ZM8.4002 28.8H21.6002V28.2C21.6002 27.2075 20.7927 26.4 19.8002 26.4H10.2002C9.20768 26.4 8.4002 27.2075 8.4002 28.2V28.8Z" fill="black"/>
<path d="M4.80024 13.2H3.00024C1.34604 13.2 0.000244141 11.8542 0.000244141 10.2V6.60001C0.000244141 4.94581 1.34604 3.60001 3.00024 3.60001H4.80024V13.2ZM3.00024 4.80001C2.00772 4.80001 1.20024 5.60749 1.20024 6.60001V10.2C1.20024 11.1925 2.00772 12 3.00024 12H3.60024V4.80001H3.00024Z" fill="black"/>
<path d="M27.0002 13.2H25.2002V3.60001H27.0002C28.6544 3.60001 30.0002 4.94581 30.0002 6.60001V10.2C30.0002 11.8542 28.6544 13.2 27.0002 13.2ZM26.4002 12H27.0002C27.9927 12 28.8002 11.1925 28.8002 10.2V6.60001C28.8002 5.60749 27.9927 4.80001 27.0002 4.80001H26.4002V12Z" fill="black"/>
<path d="M14.9999 15.6001C11.3607 15.6001 8.3999 12.6393 8.3999 9.00009C8.3999 5.36085 11.3607 2.40009 14.9999 2.40009C18.6391 2.40009 21.5999 5.36085 21.5999 9.00009C21.5999 12.6393 18.6391 15.6001 14.9999 15.6001ZM14.9999 3.60009C12.0223 3.60009 9.5999 6.02253 9.5999 9.00009C9.5999 11.9776 12.0223 14.4001 14.9999 14.4001C17.9775 14.4001 20.3999 11.9776 20.3999 9.00009C20.3999 6.02253 17.9775 3.60009 14.9999 3.60009Z" fill="white"/>
<path d="M15.6006 12H14.4006C13.4081 12 12.6006 11.1925 12.6006 10.2H13.8006C13.8006 10.5308 14.0697 10.8 14.4006 10.8H15.6006C15.9314 10.8 16.2006 10.5308 16.2006 10.2C16.2006 9.86916 15.9314 9.6 15.6006 9.6H14.4006C13.4081 9.6 12.6006 8.79252 12.6006 7.8C12.6006 6.80748 13.4081 6 14.4006 6H15.6006C16.5931 6 17.4006 6.80748 17.4006 7.8H16.2006C16.2006 7.46916 15.9314 7.2 15.6006 7.2H14.4006C14.0697 7.2 13.8006 7.46916 13.8006 7.8C13.8006 8.13084 14.0697 8.4 14.4006 8.4H15.6006C16.5931 8.4 17.4006 9.20748 17.4006 10.2C17.4006 11.1925 16.5931 12 15.6006 12Z" fill="white"/>
<path d="M15.5999 4.79996H14.3999V5.99996H15.5999V4.79996Z" fill="white"/>
<path d="M15.5999 12H14.3999V13.2H15.5999V12Z" fill="white"/>
</svg>
